<svg width="37" height="41" viewBox="0 0 37 41" fill="none" xmlns="http://www.w3.org/2000/svg">
<mask id="mask0_426_22350" style="mask-type:alpha" maskUnits="userSpaceOnUse" x="0" y="-1" width="37" height="42">
<path d="M16.8269 0.0139765H1.78724L21.5013 20.007L1.58398 40H15.6074C15.6074 40 17.6319 39.9563 18.8592 39.5919C19.949 39.2685 21.5013 38.3681 21.5013 38.3681L34.5087 25.1073C34.5087 25.1073 36.3189 21.9949 36.338 19.803C36.3584 17.4343 34.3054 14.0907 34.3054 14.0907L21.2983 1.44204C21.2983 1.44204 20.1458 0.506287 19.2657 0.217977C18.3572 -0.079698 16.8269 0.0139765 16.8269 0.0139765Z" fill="#670BFF" stroke="black" stroke-width="1.31587"/>
</mask>
<g mask="url(#mask0_426_22350)">
<path d="M38.5721 0H0.363281V39.9861H38.5721V0Z" fill="#670BFF"/>
<g filter="url(#filter0_i_426_22350)">
<path d="M19.243 18.9518C11.0376 14.1187 0.482506 16.8777 -4.33237 25.1143C-9.14724 33.3509 -6.39864 43.946 1.8068 48.7791C10.0122 53.6122 20.5673 50.8532 25.3822 42.6166C30.197 34.3801 27.4484 23.785 19.243 18.9518Z" fill="url(#paint0_linear_426_22350)"/>
</g>
</g>
<defs>
<filter id="filter0_i_426_22350" x="-6.70508" y="16.5713" width="34.459" height="35.7731" filterUnits="userSpaceOnUse" color-interpolation-filters="sRGB">
<feFlood flood-opacity="0" result="BackgroundImageFix"/>
<feBlend mode="normal" in="SourceGraphic" in2="BackgroundImageFix" result="shape"/>
<feColorMatrix in="SourceAlpha" type="matrix" values="0 0 0 0 0 0 0 0 0 0 0 0 0 0 0 0 0 0 127 0" result="hardAlpha"/>
<feOffset dy="11.8428"/>
<feGaussianBlur stdDeviation="0.59214"/>
<feComposite in2="hardAlpha" operator="arithmetic" k2="-1" k3="1"/>
<feColorMatrix type="matrix" values="0 0 0 0 0 0 0 0 0 0 0 0 0 0 0 0 0 0 0.15 0"/>
<feBlend mode="normal" in2="shape" result="effect1_innerShadow_426_22350"/>
</filter>
<linearGradient id="paint0_linear_426_22350" x1="-13.0507" y1="40.0279" x2="25.7732" y2="15.4121" gradientUnits="userSpaceOnUse">
<stop stop-color="#FAA706"/>
<stop offset="0.81865" stop-color="#FF6700"/>
</linearGradient>
</defs>
</svg>
