<svg width="300" height="300" viewBox="0 0 300 300" fill="none" xmlns="http://www.w3.org/2000/svg">
<path d="M129.624 177.435C130.102 177.431 130.579 177.427 131.072 177.423C132.649 177.412 134.227 177.405 135.805 177.399C136.347 177.396 136.89 177.394 137.448 177.392C140.323 177.379 143.198 177.371 146.072 177.365C149.02 177.359 151.968 177.339 154.915 177.316C157.2 177.3 159.484 177.295 161.768 177.293C162.853 177.29 163.939 177.284 165.024 177.273C177.479 177.155 188.686 179.846 198.047 188.671C199.473 190.164 200.851 191.681 202.201 193.242C202.571 193.667 202.94 194.093 203.321 194.531C203.647 195.001 203.647 195.001 203.98 195.48C205.729 196.767 207.625 196.498 209.71 196.451C210.182 196.447 210.654 196.444 211.14 196.44C212.167 196.432 213.193 196.419 214.219 196.403C215.851 196.377 217.483 196.364 219.115 196.353C223.756 196.321 228.397 196.266 233.038 196.208C235.878 196.174 238.718 196.151 241.558 196.135C243.152 196.122 244.745 196.095 246.339 196.068C259.087 195.942 269.775 199.781 279.101 208.733C285.677 215.578 290.604 224.96 290.738 234.596C290.752 235.521 290.752 235.521 290.767 236.465C290.793 239.294 290.817 242.123 290.83 244.952C290.84 246.435 290.856 247.918 290.878 249.4C291.073 262.311 290.077 271.507 281.198 281.449C272.225 290.154 260.814 290.9 249.047 290.796C247.942 290.793 246.837 290.79 245.732 290.789C242.852 290.782 239.972 290.765 237.092 290.745C234.142 290.727 231.191 290.719 228.241 290.71C222.473 290.691 216.706 290.661 210.938 290.624C210.938 287.337 210.938 284.05 210.938 280.663C224.86 280.663 238.782 280.663 253.125 280.663C253.125 263.648 253.125 246.632 253.125 229.101C256.219 229.101 259.313 229.101 262.5 229.101C262.694 245.73 262.887 262.359 263.086 279.492C270.51 276.522 275.54 273.421 278.797 266.088C281.051 260.732 280.774 254.979 280.773 249.268C280.774 248.047 280.785 246.826 280.796 245.604C280.846 233.921 278.732 224.158 270.777 215.295C265.074 209.776 256.961 206.673 249.091 206.648C248.656 206.643 248.221 206.637 247.773 206.631C246.353 206.613 244.933 206.603 243.512 206.593C242.521 206.582 241.529 206.57 240.537 206.558C237.94 206.528 235.343 206.505 232.746 206.483C230.091 206.46 227.436 206.43 224.781 206.4C219.58 206.344 214.38 206.294 209.18 206.249C209.304 206.56 209.428 206.87 209.556 207.19C211.611 213.295 211.203 219.683 211.192 226.043C211.195 227.345 211.198 228.647 211.201 229.95C211.206 232.67 211.205 235.391 211.199 238.111C211.192 241.584 211.204 245.057 211.221 248.531C211.232 251.217 211.232 253.903 211.229 256.59C211.229 257.87 211.232 259.15 211.239 260.43C211.286 269.902 210.75 276.916 204.058 284.104C195.572 292.289 184.664 290.624 173.438 290.624C173.438 265.681 173.438 240.738 173.438 215.038C176.532 215.038 179.625 215.038 182.813 215.038C182.813 236.695 182.813 258.351 182.813 280.663C191.665 279.802 191.665 279.802 198.047 274.804C200.887 270.821 201.065 266.777 201.062 261.963C201.064 261.518 201.066 261.073 201.068 260.615C201.073 259.155 201.075 257.695 201.075 256.235C201.077 255.209 201.079 254.184 201.081 253.159C201.085 251.011 201.086 248.863 201.085 246.715C201.085 243.984 201.093 241.253 201.103 238.522C201.11 236.403 201.111 234.285 201.111 232.166C201.112 231.16 201.114 230.154 201.119 229.149C201.17 216.738 199.701 206.139 191.089 196.545C185.314 190.956 177.161 187.905 169.202 187.915C168.745 187.911 168.288 187.907 167.817 187.903C166.319 187.892 164.821 187.89 163.324 187.888C162.271 187.885 161.219 187.881 160.167 187.877C157.965 187.87 155.763 187.867 153.561 187.868C150.758 187.868 147.956 187.852 145.153 187.832C142.98 187.819 140.807 187.817 138.634 187.817C137.601 187.816 136.569 187.811 135.537 187.802C125.83 187.724 118.171 189.651 110.047 195.226C99.8744 205.399 98.9312 216.726 98.9253 230.367C98.9234 231.397 98.9215 232.427 98.9194 233.456C98.9159 235.606 98.9148 237.756 98.9152 239.905C98.9152 242.649 98.9072 245.393 98.8971 248.136C98.8906 250.26 98.8894 252.384 98.8897 254.508C98.8891 255.519 98.8865 256.53 98.8819 257.541C98.7061 267.685 98.7061 267.685 103.125 276.562C107.439 280.125 111.639 280.159 117.188 280.663C117.188 259.007 117.188 237.351 117.188 215.038C120.282 215.038 123.375 215.038 126.563 215.038C126.563 239.982 126.563 264.925 126.563 290.624C102.988 290.624 102.988 290.624 95.0687 283.52C91.5644 279.808 89.0016 274.535 88.9805 269.389C88.9772 268.897 88.9738 268.406 88.9704 267.899C88.9694 267.097 88.9694 267.097 88.9684 266.278C88.9655 265.711 88.9626 265.144 88.9596 264.559C88.951 262.682 88.947 260.804 88.9438 258.927C88.9404 257.618 88.937 256.31 88.9337 255.002C88.9275 252.257 88.9241 249.512 88.922 246.767C88.9188 243.262 88.9048 239.756 88.8881 236.251C88.8771 233.547 88.8741 230.843 88.8732 228.139C88.8714 226.847 88.8668 225.556 88.859 224.264C88.849 222.45 88.8502 220.636 88.8539 218.822C88.8485 218.295 88.8431 217.769 88.8376 217.226C88.8627 213.352 89.6562 209.937 90.8206 206.249C85.1459 206.272 79.4714 206.307 73.7968 206.357C71.1611 206.38 68.5256 206.399 65.8898 206.408C63.3404 206.417 60.7913 206.437 58.242 206.465C57.2753 206.474 56.3085 206.479 55.3417 206.479C45.5808 206.489 35.9047 208.431 28.7112 215.624C20.8744 225.348 19.2262 234.279 19.2277 246.543C19.2264 247.772 19.2157 249 19.2046 250.229C19.1677 258.738 19.8741 266.978 25.8914 273.559C29.0004 276.39 32.8499 278.475 36.9144 279.492C37.1077 262.863 37.3011 246.234 37.5003 229.101C40.594 229.101 43.6878 229.101 46.8753 229.101C46.8753 246.117 46.8753 263.132 46.8753 280.663C60.7972 280.663 74.719 280.663 89.0628 280.663C89.0628 283.951 89.0628 287.238 89.0628 290.624C82.7107 290.664 76.3588 290.696 70.0066 290.715C67.0563 290.725 64.1061 290.737 61.1558 290.757C58.3026 290.776 55.4495 290.787 52.5962 290.791C51.5138 290.794 50.4314 290.801 49.3491 290.81C37.775 290.908 27.072 289.5 18.3498 281.037C11.9392 273.74 8.9849 265.874 9.08462 256.125C9.08334 255.093 9.08334 255.093 9.08203 254.041C9.083 252.598 9.08969 251.156 9.10192 249.714C9.11892 247.525 9.11398 245.336 9.10636 243.146C9.11001 241.735 9.11493 240.324 9.12124 238.913C9.11952 238.268 9.1178 237.624 9.11602 236.959C9.18981 230.803 10.4367 225.121 13.2938 219.653C13.4982 219.255 13.7026 218.858 13.9132 218.449C19.1817 208.514 27.9928 201.16 38.7088 197.79C39.8632 197.465 41.0227 197.158 42.1878 196.874C42.6048 196.769 43.0218 196.663 43.4514 196.554C45.6439 196.204 47.7903 196.26 50.0014 196.315C51.0049 196.334 52.0085 196.353 53.012 196.372C53.5414 196.383 54.0707 196.394 54.6161 196.406C57.43 196.46 60.2442 196.49 63.0584 196.523C66.6348 196.565 70.2105 196.615 73.7862 196.698C76.6808 196.765 79.5745 196.803 82.4698 196.822C83.57 196.834 84.6702 196.857 85.7699 196.89C91.8331 197.269 91.8331 197.269 97.2019 195.001C98.3865 193.528 99.2969 192.087 100.196 190.429C106.13 184.046 113.475 180.17 121.875 178.124C122.294 178.021 122.712 177.919 123.143 177.813C125.305 177.456 127.439 177.442 129.624 177.435Z" fill="url(#paint0_linear_1595_7193)"/>
<path d="M135.964 8.61829C136.994 8.60707 136.994 8.60707 138.044 8.59563C138.779 8.59433 139.513 8.59302 140.27 8.59168C141.414 8.58583 141.414 8.58583 142.581 8.57986C144.193 8.57286 145.805 8.57067 147.417 8.57137C149.47 8.57148 151.522 8.5555 153.575 8.5353C155.549 8.51904 157.522 8.51982 159.496 8.51844C160.226 8.51002 160.957 8.5016 161.71 8.49292C166.558 8.51817 170.432 9.10137 174.222 12.2835C174.531 12.665 174.84 13.0464 175.158 13.4394C175.637 14.0093 175.637 14.0093 176.126 14.5907C178.189 17.6595 178.285 20.3235 178.239 23.9062C178.236 24.6413 178.236 24.6413 178.234 25.3912C178.227 26.9493 178.212 28.5073 178.198 30.0654C178.192 31.1247 178.186 32.1841 178.182 33.2434C178.169 35.834 178.148 38.4245 178.124 41.0151C178.472 41.0869 178.819 41.1588 179.177 41.2328C181.628 41.7554 183.956 42.2898 186.266 43.2856C186.74 43.488 187.215 43.6904 187.704 43.899C188.18 44.1075 188.657 44.3159 189.147 44.5307C189.879 44.8434 189.879 44.8434 190.625 45.1624C192.739 46.071 194.823 47.003 196.874 48.0463C197.267 47.6326 197.659 47.2189 198.063 46.7926C199.541 45.24 201.032 43.7017 202.528 42.1669C203.17 41.5046 203.808 40.8386 204.442 40.1688C208.901 35.4653 212.973 31.7689 219.799 31.3837C224.414 31.9048 227.051 32.9544 230.504 36.1857C230.806 36.4673 231.107 36.7489 231.418 37.0391C232.409 37.9686 233.392 38.9047 234.374 39.8432C234.712 40.1655 235.049 40.4879 235.397 40.8199C237.534 42.8674 239.65 44.9348 241.753 47.0171C242.478 47.7319 243.206 48.4435 243.936 49.152C252.964 57.9092 252.964 57.9092 254.079 64.1825C253.845 75.0279 245.157 81.3227 237.89 88.476C239.063 92.2097 240.589 95.7964 242.089 99.4074C242.293 99.909 242.497 100.41 242.708 100.927C242.987 101.602 242.987 101.602 243.271 102.291C243.821 103.922 244.09 105.525 244.335 107.226C244.964 107.214 245.594 107.201 246.242 107.189C248.597 107.146 250.952 107.119 253.308 107.097C254.324 107.086 255.339 107.07 256.355 107.049C268.015 106.821 268.015 106.821 272.659 110.721C273.123 111.293 273.123 111.293 273.596 111.877C274.075 112.447 274.075 112.447 274.564 113.028C276.268 115.563 276.71 117.748 276.732 120.78C276.74 121.492 276.747 122.204 276.755 122.937C276.757 124.085 276.757 124.085 276.759 125.255C276.762 126.054 276.766 126.853 276.77 127.652C276.777 129.325 276.78 130.998 276.779 132.672C276.779 134.805 276.795 136.938 276.815 139.072C276.828 140.722 276.83 142.373 276.83 144.023C276.832 145.189 276.845 146.355 276.857 147.52C276.832 152.65 276.229 155.812 272.863 159.814C269.436 162.683 266.931 163.603 262.499 164.062C262.404 162.449 262.335 160.842 262.28 159.228C262.25 158.773 262.221 158.317 262.19 157.848C262.156 156.514 262.166 155.395 262.499 154.101C264.234 152.755 264.234 152.755 266.015 151.757C266.646 150.076 266.678 148.458 266.686 146.675C266.69 146.135 266.693 145.596 266.697 145.039C266.698 144.46 266.699 143.881 266.699 143.284C266.701 142.684 266.703 142.085 266.705 141.467C266.708 140.199 266.71 138.932 266.709 137.664C266.711 135.729 266.721 133.794 266.732 131.858C266.734 130.625 266.735 129.392 266.736 128.16C266.742 127.294 266.742 127.294 266.749 126.411C266.739 123.52 266.671 121.035 265.429 118.359C264.038 117.663 263.149 117.682 261.596 117.653C261.045 117.641 260.494 117.629 259.926 117.617C259.031 117.602 259.031 117.602 258.119 117.588C257.204 117.569 257.204 117.569 256.271 117.551C254.319 117.512 252.367 117.478 250.414 117.443C249.093 117.418 247.772 117.392 246.45 117.367C243.206 117.304 239.962 117.244 236.718 117.187C236.609 116.799 236.501 116.411 236.389 116.011C233.619 106.149 230.372 96.3419 224.413 87.8901C225.168 86.2222 225.947 85.0485 227.269 83.7855C227.607 83.4587 227.945 83.132 228.294 82.7953C228.658 82.4486 229.021 82.1018 229.396 81.7446C230.164 80.9969 230.932 80.2488 231.7 79.5004C232.909 78.3278 234.12 77.1581 235.338 75.9947C236.515 74.8675 237.68 73.7295 238.844 72.5893C239.209 72.2462 239.574 71.903 239.95 71.5495C241.706 69.8145 242.505 68.8087 243.196 66.3795C243.161 64.3206 243.103 63.811 241.683 62.3995C241.112 61.8125 241.112 61.8125 240.529 61.2136C240.045 60.7356 239.561 60.2576 239.062 59.7651C238.434 59.1152 237.809 58.4636 237.185 57.8107C235.369 55.9176 233.532 54.0471 231.686 52.1838C230.91 51.3988 230.138 50.6106 229.369 49.8195C228.249 48.6666 227.118 47.5236 225.986 46.3824C225.475 45.8514 225.475 45.8514 224.953 45.3098C223.427 43.7911 222.327 42.8688 220.287 42.1078C216.373 42.2865 213.705 45.7038 211.106 48.3485C210.747 48.7093 210.388 49.0701 210.018 49.4419C208.881 50.5853 207.748 51.7327 206.616 52.8803C205.841 53.6603 205.067 54.44 204.292 55.2195C202.402 57.1222 200.516 59.0286 198.632 60.937C196.876 60.2584 195.208 59.5431 193.567 58.6207C185.563 54.203 177.49 51.2854 168.749 48.6323C168.738 47.8874 168.726 47.1426 168.714 46.3752C168.669 43.6036 168.617 40.8322 168.563 38.0608C168.541 36.8628 168.521 35.6648 168.502 34.4668C168.475 32.7416 168.441 31.0167 168.406 29.2918C168.396 28.4923 168.396 28.4923 168.385 27.6767C168.321 24.894 168.156 22.5037 166.992 19.9213C165.51 19.1804 164.469 19.253 162.81 19.241C161.868 19.2325 161.868 19.2325 160.908 19.2239C160.227 19.2214 159.547 19.2189 158.846 19.2164C158.149 19.213 157.453 19.2097 156.735 19.2063C155.26 19.2007 153.785 19.1969 152.309 19.1946C150.047 19.1889 147.786 19.1708 145.524 19.1523C144.093 19.1485 142.662 19.1454 141.231 19.1431C140.552 19.1359 139.872 19.1287 139.172 19.1212C138.228 19.1238 138.228 19.1238 137.264 19.1265C136.71 19.1244 136.155 19.1223 135.584 19.1201C134.161 19.2292 134.161 19.2292 133.144 20.0809C131.822 21.933 131.761 23.7942 131.715 26.0159C131.703 26.5201 131.692 27.0244 131.68 27.5439C131.67 28.0829 131.66 28.622 131.65 29.1773C131.632 30.0112 131.632 30.0112 131.613 30.8619C131.575 32.6349 131.54 34.408 131.506 36.1811C131.48 37.3843 131.455 38.5874 131.429 39.7906C131.366 42.7378 131.307 45.685 131.249 48.6323C130.875 48.7497 130.502 48.8672 130.116 48.9882C116.717 53.1914 116.717 53.1914 104.406 59.8383C103.79 60.2009 103.173 60.5634 102.538 60.937C100.005 60.2445 98.2339 57.9285 96.4593 56.103C96.104 55.7433 95.7487 55.3835 95.3827 55.0129C93.866 53.4771 92.3563 51.9344 90.846 50.3924C89.7409 49.2662 88.6324 48.1435 87.5237 47.0209C87.1843 46.6718 86.8449 46.3227 86.4952 45.9629C83.6771 43.0391 83.6771 43.0391 79.8409 42.1317C76.9507 43.101 75.2379 45.0341 73.1202 47.172C72.6714 47.6166 72.2225 48.0613 71.7601 48.5194C70.8145 49.4605 69.8725 50.4054 68.9341 51.3537C67.498 52.801 66.0456 54.2304 64.5909 55.6589C63.6732 56.5765 62.7565 57.495 61.8409 58.4147C61.4064 58.8403 60.9718 59.2658 60.5241 59.7043C58.6349 61.637 57.5424 62.8758 56.7557 65.5029C56.8419 67.5404 56.9636 68.0958 58.3756 69.5063C58.7556 69.8975 59.1357 70.2888 59.5272 70.6919C59.9924 71.1466 60.4575 71.6013 60.9368 72.0698C61.5093 72.6501 62.0805 73.2315 62.6509 73.8139C64.5911 75.7871 66.5533 77.7376 68.5174 79.687C69.2045 80.3712 69.8916 81.0555 70.5785 81.74C72.2458 83.401 73.915 85.0601 75.5853 86.7182C74.8857 88.5395 74.1298 90.2438 73.1614 91.9367C68.6432 100.037 65.8118 108.293 63.2806 117.187C62.9395 117.19 62.5984 117.194 62.2469 117.197C58.7015 117.235 55.1564 117.284 51.6112 117.341C50.2875 117.36 48.9638 117.377 47.6401 117.39C45.7389 117.41 43.8383 117.44 41.9373 117.473C41.0474 117.479 41.0474 117.479 40.1394 117.484C39.5882 117.496 39.037 117.508 38.4691 117.52C37.9837 117.526 37.4984 117.533 36.9984 117.539C35.4276 117.831 34.926 118.254 33.9837 119.531C33.3753 121.229 33.3211 122.828 33.3126 124.622C33.3089 125.164 33.3052 125.705 33.3013 126.264C33.3007 126.845 33.3 127.426 33.2993 128.025C33.2974 128.626 33.2954 129.227 33.2934 129.846C33.2905 131.116 33.2891 132.386 33.2892 133.656C33.2879 135.598 33.2773 137.54 33.2661 139.481C33.2644 140.716 33.2633 141.951 33.2627 143.186C33.2585 143.766 33.2543 144.345 33.25 144.943C33.2091 148.797 33.2091 148.797 34.5696 152.343C35.0734 152.589 35.5772 152.834 36.0963 153.087C37.4993 154.101 37.4993 154.101 37.7365 155.168C37.788 156.52 37.7544 157.841 37.6824 159.191C37.6692 159.659 37.656 160.126 37.6424 160.607C37.6079 161.759 37.5553 162.911 37.4993 164.062C33.0056 163.445 28.9493 162.504 26.0323 158.789C24.1437 155.853 23.3655 153.573 23.3331 150.055C23.3256 149.343 23.3181 148.631 23.3103 147.897C23.306 147.127 23.3017 146.356 23.2972 145.561C23.2948 145.168 23.2924 144.775 23.29 144.37C23.2778 142.286 23.2694 140.202 23.2639 138.119C23.2574 135.976 23.2373 133.833 23.214 131.691C23.1986 130.035 23.1937 128.38 23.1916 126.725C23.1874 125.554 23.172 124.383 23.1562 123.212C23.1679 118.298 23.6218 115.008 26.9112 111.186C27.2874 110.87 27.6635 110.554 28.0511 110.229C28.4242 109.904 28.7973 109.579 29.1818 109.245C32.3363 107.168 35.4277 107.063 39.0694 107.112C39.7838 107.114 39.7838 107.114 40.5126 107.117C42.0229 107.123 43.533 107.138 45.0433 107.153C46.0717 107.159 47.1001 107.164 48.1286 107.169C50.6403 107.182 53.1518 107.202 55.6634 107.226C55.7546 106.744 55.7546 106.744 55.8476 106.251C56.5223 102.936 57.539 99.9593 58.886 96.8623C59.2473 96.0182 59.6074 95.1736 59.9664 94.3285C60.2037 93.7805 60.2037 93.7805 60.4459 93.2215C61.0688 91.661 61.5882 90.0732 62.1087 88.476C61.7721 88.1486 61.4355 87.8213 61.0887 87.484C59.5441 85.9762 58.0066 84.4613 56.469 82.9462C55.6748 82.1741 55.6748 82.1741 54.8646 81.3864C50.3272 76.8987 46.2742 72.8057 46.0687 66.1738C46.04 65.5506 46.0112 64.9275 45.9817 64.2855C46.7589 58.7698 50.1274 54.9112 53.9948 51.1454C54.4505 50.691 54.9063 50.2367 55.3758 49.7686C56.3331 48.8169 57.294 47.8687 58.2582 46.924C59.7294 45.4818 61.1893 44.0289 62.6477 42.5738C63.5836 41.6462 64.5201 40.7192 65.4572 39.7929C65.8913 39.3619 66.3254 38.931 66.7726 38.487C70.86 34.4924 74.2394 32.009 80.1263 31.4204C87.5282 31.7291 91.7231 36.1192 96.4959 41.1616C97.143 41.8293 97.7912 42.4961 98.4403 43.162C100.013 44.7795 101.572 46.4091 103.124 48.0463C103.452 47.8958 103.779 47.7452 104.116 47.5901C105.628 46.8971 107.141 46.2083 108.654 45.5195C109.169 45.2827 109.684 45.0459 110.214 44.8019C118.557 41.0151 118.557 41.0151 121.874 41.0151C121.862 40.3651 121.85 39.7152 121.837 39.0456C121.794 36.617 121.768 34.1885 121.746 31.7597C121.734 30.7117 121.718 29.6638 121.698 28.616C121.669 27.1032 121.656 25.5909 121.645 24.0778C121.633 23.615 121.621 23.1521 121.609 22.6753C121.607 18.7382 122.775 15.739 125.349 12.7482C125.725 12.4325 126.101 12.1167 126.489 11.7914C126.862 11.4667 127.235 11.1419 127.619 10.8073C130.244 9.07935 132.867 8.64131 135.964 8.61829Z" fill="url(#paint1_linear_1595_7193)"/>
<path d="M188.815 81.6416C190.369 82.9046 191.868 84.2099 193.359 85.5464C193.757 85.8613 194.155 86.1763 194.565 86.5008C206.302 95.9233 213.723 111.815 215.624 126.562C215.687 128.199 215.68 129.831 215.661 131.469C215.658 131.9 215.656 132.332 215.653 132.776C215.646 133.83 215.636 134.883 215.624 135.937C214.074 135.953 212.524 135.964 210.973 135.974C210.531 135.979 210.089 135.983 209.633 135.988C208.505 135.994 207.377 135.968 206.249 135.937C205.162 134.85 205.46 133.276 205.345 131.818C204.134 116.972 197.735 103.013 186.327 93.1636C178.595 87.0902 170.18 82.8744 160.546 80.8589C160.019 80.7471 159.492 80.6353 158.949 80.5201C144.244 78.625 129.871 81.5347 117.7 90.1011C105.38 99.6424 97.3642 112.233 94.9212 127.734C94.7187 129.795 94.5636 131.847 94.4589 133.916C94.3353 135.351 94.3353 135.351 93.7493 135.937C92.1693 135.98 90.6046 135.991 89.0252 135.974C88.5807 135.971 88.1362 135.968 87.6782 135.966C86.5769 135.959 85.4756 135.948 84.3743 135.937C83.5681 119.498 89.4272 104.337 100.195 91.9917C100.51 91.5914 100.826 91.191 101.151 90.7786C121.729 65.2378 163.222 63.2239 188.815 81.6416Z" fill="url(#paint2_linear_1595_7193)"/>
<path d="M246.536 140.26C250.6 143.193 253.187 146.736 255.47 151.171C255.714 151.632 255.958 152.093 256.209 152.567C258.943 158.687 258.799 166.855 256.898 173.217C255.547 176.582 253.662 179.431 251.368 182.226C251.032 182.642 250.696 183.058 250.35 183.487C245.7 188.675 238.91 191.605 232.032 192.187C231.632 192.221 231.232 192.255 230.819 192.29C229.642 192.335 228.518 192.286 227.345 192.187C226.872 192.147 226.399 192.107 225.912 192.066C219.252 191.182 212.714 187.854 208.171 182.878C202.302 174.99 200.752 167.286 201.563 157.617C202.041 155.254 202.782 153.296 203.907 151.171C204.3 150.408 204.3 150.408 204.701 149.629C208.647 142.542 214.636 138.134 222.383 135.758C231.05 134.021 239.083 135.478 246.536 140.26ZM220.313 147.656C219.948 147.861 219.582 148.066 219.206 148.278C215.177 150.8 212.759 154.853 211.524 159.374C210.814 165.4 211.509 170.195 215.04 175.195C218.539 179.244 222.909 181.483 228.187 182.189C233.706 182.497 238.402 180.505 242.579 176.952C247.012 172.19 248.199 168.008 248.059 161.562C247.623 156.94 245.913 153.26 242.579 149.999C235.941 144.885 227.82 143.092 220.313 147.656Z" fill="url(#paint3_linear_1595_7193)"/>
<path d="M87.1614 140.26C91.2246 143.193 93.8115 146.736 96.0947 151.171C96.3387 151.632 96.5826 152.093 96.834 152.567C99.5676 158.687 99.424 166.855 97.5229 173.217C96.1721 176.582 94.2866 179.431 91.9931 182.226C91.657 182.642 91.3209 183.058 90.9746 183.487C86.3246 188.675 79.5345 191.605 72.6572 192.187C72.2569 192.221 71.8566 192.255 71.4441 192.29C70.267 192.335 69.1434 192.286 67.9697 192.187C67.4969 192.147 67.024 192.107 66.5369 192.066C59.8767 191.182 53.339 187.854 48.7963 182.878C42.9271 174.99 41.3769 167.286 42.1884 157.617C42.6663 155.254 43.4072 153.296 44.5322 151.171C44.9253 150.408 44.9253 150.408 45.3264 149.629C49.2717 142.542 55.2608 138.134 63.0075 135.758C71.6747 134.021 79.7077 135.478 87.1614 140.26ZM60.9384 147.656C60.5729 147.861 60.2073 148.066 59.8307 148.278C55.8024 150.8 53.3844 154.853 52.1494 159.374C51.4389 165.4 52.134 170.195 55.665 175.195C59.1639 179.244 63.5336 181.483 68.812 182.189C74.3314 182.497 79.0272 180.505 83.2041 176.952C87.637 172.19 88.8236 168.008 88.6835 161.562C88.2483 156.94 86.5384 153.26 83.2041 149.999C76.5656 144.885 68.4449 143.092 60.9384 147.656Z" fill="url(#paint4_linear_1595_7193)"/>
<path d="M166.849 121.51C170.912 124.443 173.499 127.986 175.782 132.421C176.026 132.882 176.27 133.343 176.521 133.817C179.255 139.937 179.112 148.105 177.21 154.467C175.86 157.832 173.974 160.681 171.681 163.476C171.345 163.892 171.008 164.308 170.662 164.737C166.012 169.925 159.222 172.855 152.345 173.437C151.944 173.471 151.544 173.505 151.132 173.54C149.955 173.585 148.831 173.536 147.657 173.437C147.184 173.397 146.712 173.357 146.224 173.316C139.564 172.432 133.026 169.104 128.484 164.128C122.615 156.24 121.064 148.536 121.876 138.867C122.354 136.504 123.095 134.546 124.22 132.421C124.613 131.658 124.613 131.658 125.014 130.879C128.959 123.792 134.948 119.384 142.695 117.008C151.362 115.271 159.395 116.728 166.849 121.51ZM140.626 128.906C140.26 129.111 139.895 129.316 139.518 129.528C135.49 132.05 133.072 136.103 131.837 140.624C131.126 146.65 131.821 151.445 135.353 156.445C138.851 160.494 143.221 162.733 148.499 163.439C154.019 163.747 158.715 161.755 162.892 158.202C167.325 153.44 168.511 149.258 168.371 142.812C167.936 138.19 166.226 134.51 162.892 131.249C156.253 126.135 148.132 124.342 140.626 128.906Z" fill="url(#paint5_linear_1595_7193)"/>
<path d="M131.25 280.664C143.625 280.664 156 280.664 168.75 280.664C168.75 283.951 168.75 287.238 168.75 290.625C156.375 290.625 144 290.625 131.25 290.625C131.25 287.338 131.25 284.051 131.25 280.664Z" fill="url(#paint6_linear_1595_7193)"/>
<defs>
<linearGradient id="paint0_linear_1595_7193" x1="149.991" y1="177.269" x2="149.991" y2="290.815" gradientUnits="userSpaceOnUse">
<stop stop-color="#670BFF"/>
<stop offset="1" stop-color="#FF6700"/>
</linearGradient>
<linearGradient id="paint1_linear_1595_7193" x1="150.007" y1="8.49292" x2="150.007" y2="164.062" gradientUnits="userSpaceOnUse">
<stop stop-color="#670BFF"/>
<stop offset="1" stop-color="#FF6700"/>
</linearGradient>
<linearGradient id="paint2_linear_1595_7193" x1="149.988" y1="69.4597" x2="149.988" y2="135.989" gradientUnits="userSpaceOnUse">
<stop stop-color="#670BFF"/>
<stop offset="1" stop-color="#FF6700"/>
</linearGradient>
<linearGradient id="paint3_linear_1595_7193" x1="229.83" y1="135.052" x2="229.83" y2="192.307" gradientUnits="userSpaceOnUse">
<stop stop-color="#670BFF"/>
<stop offset="1" stop-color="#FF6700"/>
</linearGradient>
<linearGradient id="paint4_linear_1595_7193" x1="70.4554" y1="135.052" x2="70.4554" y2="192.307" gradientUnits="userSpaceOnUse">
<stop stop-color="#670BFF"/>
<stop offset="1" stop-color="#FF6700"/>
</linearGradient>
<linearGradient id="paint5_linear_1595_7193" x1="150.143" y1="116.302" x2="150.143" y2="173.557" gradientUnits="userSpaceOnUse">
<stop stop-color="#670BFF"/>
<stop offset="1" stop-color="#FF6700"/>
</linearGradient>
<linearGradient id="paint6_linear_1595_7193" x1="150" y1="280.664" x2="150" y2="290.625" gradientUnits="userSpaceOnUse">
<stop stop-color="#670BFF"/>
<stop offset="1" stop-color="#FF6700"/>
</linearGradient>
</defs>
</svg>
