<svg width="164" height="68" viewBox="0 0 164 68" fill="none" xmlns="http://www.w3.org/2000/svg">
<path d="M21.8618 47.3807C18.906 47.3807 16.456 46.7549 14.5121 45.5033C12.5681 44.2517 11.21 42.5607 10.4377 40.4303L16.5492 36.8753C17.5878 39.3518 19.4252 40.5901 22.0616 40.5901C24.2452 40.5901 25.337 39.9643 25.337 38.7127C25.337 37.8872 24.7112 37.2215 23.4596 36.7155C22.927 36.5025 21.7553 36.143 19.9445 35.637C17.3881 34.8914 15.3642 33.8528 13.873 32.5213C12.3817 31.1632 11.6361 29.2858 11.6361 26.8892C11.6361 24.3061 12.5548 22.2157 14.3922 20.6179C16.2563 19.0201 18.5731 18.2213 21.3426 18.2213C23.686 18.2213 25.7631 18.7672 27.5739 19.859C29.3847 20.9508 30.7694 22.5352 31.7281 24.6124L25.7365 28.1275C24.8577 26.0504 23.4064 25.0118 21.3825 25.0118C20.5304 25.0118 19.8779 25.1849 19.4252 25.5311C18.9992 25.8773 18.7861 26.3166 18.7861 26.8492C18.7861 27.4617 19.1057 27.981 19.7448 28.4071C20.4105 28.8331 21.6888 29.3258 23.5795 29.885C24.9376 30.2845 26.0294 30.6573 26.8549 31.0035C27.6804 31.3496 28.5858 31.8556 29.5711 32.5213C30.5564 33.1605 31.2887 33.9993 31.7681 35.0378C32.2474 36.0498 32.4871 37.2481 32.4871 38.6328C32.4871 41.3757 31.5151 43.5194 29.5711 45.0639C27.6272 46.6084 25.0574 47.3807 21.8618 47.3807ZM55.134 46.7815H47.7043L42.0322 38.2733V46.7815H35.4014V18.8204H42.0322V35.1577L47.185 26.8093H54.8544L48.1437 36.7954L55.134 46.7815ZM70.2635 26.8093H76.8943V46.7815H70.2635V44.9441C68.9054 46.5418 67.0147 47.3407 64.5914 47.3407C61.9285 47.3407 59.6916 46.3421 57.8808 44.3449C56.0966 42.321 55.2045 39.8045 55.2045 36.7954C55.2045 33.7863 56.0966 31.2831 57.8808 29.2858C59.6916 27.262 61.9285 26.2501 64.5914 26.2501C67.0147 26.2501 68.9054 27.049 70.2635 28.6467V26.8093ZM63.0336 39.951C63.8059 40.7499 64.8178 41.1493 66.0694 41.1493C67.321 41.1493 68.3329 40.7499 69.1051 39.951C69.8774 39.1521 70.2635 38.1002 70.2635 36.7954C70.2635 35.4905 69.8774 34.4387 69.1051 33.6398C68.3329 32.8409 67.321 32.4415 66.0694 32.4415C64.8178 32.4415 63.8059 32.8409 63.0336 33.6398C62.2613 34.4387 61.8752 35.4905 61.8752 36.7954C61.8752 38.1002 62.2613 39.1521 63.0336 39.951ZM93.4406 26.2501C96.1036 26.2501 98.3272 27.262 100.111 29.2858C101.922 31.2831 102.828 33.7863 102.828 36.7954C102.828 39.8045 101.922 42.321 100.111 44.3449C98.3272 46.3421 96.1036 47.3407 93.4406 47.3407C91.0173 47.3407 89.1266 46.5418 87.7685 44.9441V54.7704H81.1378V26.8093H87.7685V28.6467C89.1266 27.049 91.0173 26.2501 93.4406 26.2501ZM88.9269 39.951C89.6992 40.7499 90.7111 41.1493 91.9627 41.1493C93.2143 41.1493 94.2262 40.7499 94.9985 39.951C95.7707 39.1521 96.1569 38.1002 96.1569 36.7954C96.1569 35.4905 95.7707 34.4387 94.9985 33.6398C94.2262 32.8409 93.2143 32.4415 91.9627 32.4415C90.7111 32.4415 89.6992 32.8409 88.9269 33.6398C88.1547 34.4387 87.7685 35.4905 87.7685 36.7954C87.7685 38.1002 88.1547 39.1521 88.9269 39.951Z" fill="#670BFF"/>
<path d="M12.101 50.1771V49.7618H15.0004V50.1771H13.7847V53.6277H13.3166V50.1771H12.101ZM16.108 51.8835V53.6277H15.6625V49.7618H16.108V51.1813H16.1457C16.2137 51.0315 16.3156 50.9126 16.4515 50.8245C16.5887 50.7352 16.7712 50.6905 16.9989 50.6905C17.1965 50.6905 17.3695 50.7301 17.518 50.8094C17.6665 50.8874 17.7817 51.0076 17.8635 51.17C17.9465 51.331 17.9881 51.5362 17.9881 51.7853V53.6277H17.5426V51.8155C17.5426 51.5852 17.4828 51.4072 17.3633 51.2813C17.245 51.1542 17.0807 51.0907 16.8706 51.0907C16.7246 51.0907 16.5937 51.1215 16.4779 51.1832C16.3634 51.2448 16.2728 51.3348 16.2061 51.4531C16.1407 51.5714 16.108 51.7149 16.108 51.8835ZM20.0187 53.6881C19.7393 53.6881 19.4983 53.6264 19.2957 53.5031C19.0944 53.3785 18.939 53.2049 18.8295 52.9821C18.7213 52.7581 18.6671 52.4976 18.6671 52.2006C18.6671 51.9036 18.7213 51.6419 18.8295 51.4154C18.939 51.1876 19.0912 51.0101 19.2863 50.883C19.4826 50.7547 19.7116 50.6905 19.9734 50.6905C20.1244 50.6905 20.2735 50.7157 20.4208 50.766C20.568 50.8163 20.702 50.8981 20.8228 51.0114C20.9437 51.1234 21.0399 51.2719 21.1117 51.4569C21.1834 51.6419 21.2193 51.8697 21.2193 52.1402V52.329H18.9843V51.9439H20.7662C20.7662 51.7803 20.7335 51.6343 20.6681 51.506C20.6039 51.3776 20.512 51.2763 20.3925 51.2021C20.2742 51.1278 20.1345 51.0907 19.9734 51.0907C19.796 51.0907 19.6424 51.1347 19.5128 51.2228C19.3845 51.3097 19.2857 51.4229 19.2165 51.5626C19.1472 51.7023 19.1126 51.852 19.1126 52.0119V52.2686C19.1126 52.4875 19.1504 52.6732 19.2259 52.8254C19.3027 52.9764 19.409 53.0916 19.5449 53.1709C19.6808 53.2489 19.8387 53.2879 20.0187 53.2879C20.1357 53.2879 20.2414 53.2715 20.3358 53.2388C20.4315 53.2049 20.5139 53.1545 20.5831 53.0878C20.6523 53.0199 20.7058 52.9355 20.7436 52.8349L21.1739 52.9557C21.1286 53.1017 21.0525 53.23 20.9455 53.3408C20.8386 53.4502 20.7064 53.5358 20.5491 53.5975C20.3918 53.6579 20.215 53.6881 20.0187 53.6881ZM24.5698 53.6881C24.298 53.6881 24.0639 53.6239 23.8676 53.4956C23.6713 53.3672 23.5203 53.1904 23.4146 52.9651C23.3089 52.7399 23.256 52.4825 23.256 52.1931C23.256 51.8986 23.3101 51.6387 23.4184 51.4135C23.5278 51.187 23.6801 51.0101 23.8752 50.883C24.0715 50.7547 24.3005 50.6905 24.5623 50.6905C24.7661 50.6905 24.9499 50.7283 25.1135 50.8038C25.2771 50.8793 25.4111 50.985 25.5155 51.1209C25.62 51.2568 25.6848 51.4154 25.71 51.5966H25.2645C25.2305 51.4644 25.155 51.3474 25.038 51.2455C24.9222 51.1423 24.7661 51.0907 24.5698 51.0907C24.3962 51.0907 24.2439 51.136 24.113 51.2266C23.9834 51.3159 23.8821 51.4424 23.8091 51.606C23.7374 51.7684 23.7015 51.959 23.7015 52.178C23.7015 52.402 23.7367 52.597 23.8072 52.7631C23.8789 52.9293 23.9796 53.0582 24.1092 53.1501C24.2401 53.242 24.3936 53.2879 24.5698 53.2879C24.6856 53.2879 24.7907 53.2678 24.8851 53.2275C24.9794 53.1872 25.0594 53.1293 25.1248 53.0538C25.1902 52.9783 25.2368 52.8877 25.2645 52.782H25.71C25.6848 52.9532 25.6225 53.1073 25.5231 53.2445C25.4249 53.3804 25.2947 53.4886 25.1323 53.5692C24.9713 53.6484 24.7838 53.6881 24.5698 53.6881ZM27.5391 53.6881C27.2773 53.6881 27.0477 53.6258 26.8501 53.5012C26.6538 53.3766 26.5003 53.2023 26.3895 52.9783C26.28 52.7543 26.2253 52.4926 26.2253 52.1931C26.2253 51.891 26.28 51.6274 26.3895 51.4021C26.5003 51.1769 26.6538 51.002 26.8501 50.8774C27.0477 50.7528 27.2773 50.6905 27.5391 50.6905C27.8009 50.6905 28.0299 50.7528 28.2262 50.8774C28.4238 51.002 28.5773 51.1769 28.6868 51.4021C28.7975 51.6274 28.8529 51.891 28.8529 52.1931C28.8529 52.4926 28.7975 52.7543 28.6868 52.9783C28.5773 53.2023 28.4238 53.3766 28.2262 53.5012C28.0299 53.6258 27.8009 53.6881 27.5391 53.6881ZM27.5391 53.2879C27.7379 53.2879 27.9015 53.2369 28.0299 53.135C28.1583 53.0331 28.2533 52.8991 28.3149 52.7329C28.3766 52.5668 28.4074 52.3869 28.4074 52.1931C28.4074 51.9993 28.3766 51.8187 28.3149 51.6513C28.2533 51.4839 28.1583 51.3487 28.0299 51.2455C27.9015 51.1423 27.7379 51.0907 27.5391 51.0907C27.3403 51.0907 27.1767 51.1423 27.0483 51.2455C26.92 51.3487 26.8249 51.4839 26.7633 51.6513C26.7016 51.8187 26.6708 51.9993 26.6708 52.1931C26.6708 52.3869 26.7016 52.5668 26.7633 52.7329C26.8249 52.8991 26.92 53.0331 27.0483 53.135C27.1767 53.2369 27.3403 53.2879 27.5391 53.2879ZM29.9784 51.8835V53.6277H29.5329V50.7283H29.9633V51.1813H30.0011C30.069 51.0341 30.1722 50.9158 30.3106 50.8264C30.4491 50.7358 30.6278 50.6905 30.8467 50.6905C31.0431 50.6905 31.2148 50.7308 31.3621 50.8113C31.5093 50.8906 31.6238 51.0114 31.7056 51.1737C31.7874 51.3348 31.8283 51.5387 31.8283 51.7853V53.6277H31.3828V51.8155C31.3828 51.5878 31.3237 51.4103 31.2054 51.2832C31.0871 51.1549 30.9248 51.0907 30.7184 51.0907C30.5762 51.0907 30.4491 51.1215 30.3371 51.1832C30.2263 51.2448 30.1389 51.3348 30.0747 51.4531C30.0105 51.5714 29.9784 51.7149 29.9784 51.8835ZM33.8203 53.6881C33.5484 53.6881 33.3144 53.6239 33.1181 53.4956C32.9217 53.3672 32.7707 53.1904 32.665 52.9651C32.5593 52.7399 32.5065 52.4825 32.5065 52.1931C32.5065 51.8986 32.5606 51.6387 32.6688 51.4135C32.7783 51.187 32.9305 51.0101 33.1256 50.883C33.3219 50.7547 33.551 50.6905 33.8127 50.6905C34.0166 50.6905 34.2003 50.7283 34.3639 50.8038C34.5275 50.8793 34.6615 50.985 34.766 51.1209C34.8704 51.2568 34.9352 51.4154 34.9604 51.5966H34.5149C34.4809 51.4644 34.4054 51.3474 34.2884 51.2455C34.1726 51.1423 34.0166 51.0907 33.8203 51.0907C33.6466 51.0907 33.4943 51.136 33.3634 51.2266C33.2338 51.3159 33.1325 51.4424 33.0595 51.606C32.9878 51.7684 32.9519 51.959 32.9519 52.178C32.9519 52.402 32.9872 52.597 33.0576 52.7631C33.1294 52.9293 33.2301 53.0582 33.3597 53.1501C33.4905 53.242 33.6441 53.2879 33.8203 53.2879C33.936 53.2879 34.0411 53.2678 34.1355 53.2275C34.2299 53.1872 34.3098 53.1293 34.3752 53.0538C34.4407 52.9783 34.4872 52.8877 34.5149 52.782H34.9604C34.9352 52.9532 34.8729 53.1073 34.7735 53.2445C34.6754 53.3804 34.5451 53.4886 34.3828 53.5692C34.2217 53.6484 34.0342 53.6881 33.8203 53.6881ZM35.6116 53.6277V50.7283H36.0571V53.6277H35.6116ZM35.8382 50.245C35.7513 50.245 35.6764 50.2154 35.6135 50.1563C35.5519 50.0972 35.521 50.026 35.521 49.943C35.521 49.8599 35.5519 49.7888 35.6135 49.7297C35.6764 49.6705 35.7513 49.641 35.8382 49.641C35.925 49.641 35.9992 49.6705 36.0609 49.7297C36.1238 49.7888 36.1553 49.8599 36.1553 49.943C36.1553 50.026 36.1238 50.0972 36.0609 50.1563C35.9992 50.2154 35.925 50.245 35.8382 50.245ZM38.0887 53.6881C37.8093 53.6881 37.5683 53.6264 37.3657 53.5031C37.1644 53.3785 37.009 53.2049 36.8995 52.9821C36.7913 52.7581 36.7371 52.4976 36.7371 52.2006C36.7371 51.9036 36.7913 51.6419 36.8995 51.4154C37.009 51.1876 37.1612 51.0101 37.3563 50.883C37.5526 50.7547 37.7816 50.6905 38.0434 50.6905C38.1944 50.6905 38.3435 50.7157 38.4908 50.766C38.638 50.8163 38.772 50.8981 38.8928 51.0114C39.0137 51.1234 39.1099 51.2719 39.1817 51.4569C39.2534 51.6419 39.2893 51.8697 39.2893 52.1402V52.329H37.0543V51.9439H38.8362C38.8362 51.7803 38.8035 51.6343 38.7381 51.506C38.6739 51.3776 38.582 51.2763 38.4625 51.2021C38.3442 51.1278 38.2045 51.0907 38.0434 51.0907C37.866 51.0907 37.7124 51.1347 37.5828 51.2228C37.4545 51.3097 37.3557 51.4229 37.2865 51.5626C37.2172 51.7023 37.1826 51.852 37.1826 52.0119V52.2686C37.1826 52.4875 37.2204 52.6732 37.2959 52.8254C37.3727 52.9764 37.479 53.0916 37.6149 53.1709C37.7508 53.2489 37.9087 53.2879 38.0887 53.2879C38.2057 53.2879 38.3114 53.2715 38.4058 53.2388C38.5015 53.2049 38.5839 53.1545 38.6531 53.0878C38.7223 53.0199 38.7758 52.9355 38.8136 52.8349L39.2439 52.9557C39.1986 53.1017 39.1225 53.23 39.0155 53.3408C38.9086 53.4502 38.7764 53.5358 38.6191 53.5975C38.4618 53.6579 38.285 53.6881 38.0887 53.6881ZM39.9669 53.6277V50.7283H40.3973V51.1662H40.4275C40.4804 51.0227 40.576 50.9063 40.7144 50.817C40.8529 50.7276 41.0089 50.683 41.1826 50.683C41.2153 50.683 41.2562 50.6836 41.3053 50.6848C41.3543 50.6861 41.3915 50.688 41.4166 50.6905V51.1435C41.4015 51.1398 41.3669 51.1341 41.3128 51.1265C41.26 51.1177 41.204 51.1133 41.1448 51.1133C41.0039 51.1133 40.878 51.1429 40.7673 51.2021C40.6578 51.2599 40.571 51.3405 40.5068 51.4437C40.4439 51.5456 40.4124 51.662 40.4124 51.7929V53.6277H39.9669ZM43.0268 54.7754C42.8116 54.7754 42.6266 54.7477 42.4718 54.6923C42.317 54.6382 42.1881 54.5665 42.0849 54.4771C41.9829 54.389 41.9018 54.2947 41.8414 54.194L42.1962 53.9448C42.2365 53.9977 42.2875 54.0581 42.3491 54.126C42.4108 54.1952 42.4951 54.255 42.6021 54.3054C42.7103 54.3569 42.8519 54.3827 43.0268 54.3827C43.2609 54.3827 43.454 54.3261 43.6063 54.2129C43.7586 54.0996 43.8347 53.9222 43.8347 53.6805V53.0916H43.797C43.7642 53.1444 43.7177 53.2099 43.6573 53.2879C43.5981 53.3647 43.5126 53.4333 43.4006 53.4937C43.2898 53.5528 43.1401 53.5824 42.9513 53.5824C42.7172 53.5824 42.5071 53.527 42.3208 53.4163C42.1358 53.3055 41.9892 53.1444 41.881 52.933C41.774 52.7216 41.7205 52.4649 41.7205 52.1629C41.7205 51.8659 41.7728 51.6073 41.8772 51.387C41.9817 51.1656 42.127 50.9944 42.3133 50.8736C42.4995 50.7515 42.7147 50.6905 42.9588 50.6905C43.1476 50.6905 43.2974 50.722 43.4081 50.7849C43.5201 50.8465 43.6057 50.917 43.6648 50.9963C43.7252 51.0743 43.7718 51.1385 43.8045 51.1888H43.8498V50.7283H44.2802V53.7107C44.2802 53.9599 44.2236 54.1625 44.1103 54.3186C43.9983 54.4759 43.8473 54.591 43.6573 54.664C43.4685 54.7383 43.2583 54.7754 43.0268 54.7754ZM43.0117 53.1822C43.1904 53.1822 43.3414 53.1413 43.4647 53.0595C43.5881 52.9777 43.6818 52.86 43.746 52.7065C43.8102 52.553 43.8423 52.3693 43.8423 52.1553C43.8423 51.9464 43.8108 51.7621 43.7479 51.6022C43.685 51.4424 43.5918 51.3172 43.4685 51.2266C43.3452 51.136 43.1929 51.0907 43.0117 51.0907C42.8229 51.0907 42.6656 51.1385 42.5398 51.2341C42.4152 51.3298 42.3214 51.4581 42.2585 51.6192C42.1969 51.7803 42.166 51.959 42.166 52.1553C42.166 52.3567 42.1975 52.5347 42.2604 52.6895C42.3246 52.8431 42.419 52.9639 42.5436 53.052C42.6694 53.1388 42.8254 53.1822 43.0117 53.1822ZM46.3113 53.6881C46.0319 53.6881 45.7909 53.6264 45.5883 53.5031C45.387 53.3785 45.2316 53.2049 45.1221 52.9821C45.0139 52.7581 44.9597 52.4976 44.9597 52.2006C44.9597 51.9036 45.0139 51.6419 45.1221 51.4154C45.2316 51.1876 45.3838 51.0101 45.5789 50.883C45.7752 50.7547 46.0042 50.6905 46.266 50.6905C46.417 50.6905 46.5661 50.7157 46.7134 50.766C46.8606 50.8163 46.9946 50.8981 47.1154 51.0114C47.2363 51.1234 47.3325 51.2719 47.4043 51.4569C47.476 51.6419 47.5119 51.8697 47.5119 52.1402V52.329H45.2769V51.9439H47.0588C47.0588 51.7803 47.0261 51.6343 46.9607 51.506C46.8965 51.3776 46.8046 51.2763 46.6851 51.2021C46.5668 51.1278 46.4271 51.0907 46.266 51.0907C46.0886 51.0907 45.935 51.1347 45.8054 51.2228C45.6771 51.3097 45.5783 51.4229 45.5091 51.5626C45.4398 51.7023 45.4052 51.852 45.4052 52.0119V52.2686C45.4052 52.4875 45.443 52.6732 45.5185 52.8254C45.5953 52.9764 45.7016 53.0916 45.8375 53.1709C45.9734 53.2489 46.1314 53.2879 46.3113 53.2879C46.4283 53.2879 46.534 53.2715 46.6284 53.2388C46.7241 53.2049 46.8065 53.1545 46.8757 53.0878C46.9449 53.0199 46.9984 52.9355 47.0362 52.8349L47.4665 52.9557C47.4212 53.1017 47.3451 53.23 47.2381 53.3408C47.1312 53.4502 46.999 53.5358 46.8417 53.5975C46.6844 53.6579 46.5076 53.6881 46.3113 53.6881ZM50.8624 53.6881C50.6007 53.6881 50.371 53.6258 50.1734 53.5012C49.9771 53.3766 49.8236 53.2023 49.7129 52.9783C49.6034 52.7543 49.5486 52.4926 49.5486 52.1931C49.5486 51.891 49.6034 51.6274 49.7129 51.4021C49.8236 51.1769 49.9771 51.002 50.1734 50.8774C50.371 50.7528 50.6007 50.6905 50.8624 50.6905C51.1242 50.6905 51.3532 50.7528 51.5495 50.8774C51.7471 51.002 51.9006 51.1769 52.0101 51.4021C52.1209 51.6274 52.1762 51.891 52.1762 52.1931C52.1762 52.4926 52.1209 52.7543 52.0101 52.9783C51.9006 53.2023 51.7471 53.3766 51.5495 53.5012C51.3532 53.6258 51.1242 53.6881 50.8624 53.6881ZM50.8624 53.2879C51.0613 53.2879 51.2249 53.2369 51.3532 53.135C51.4816 53.0331 51.5766 52.8991 51.6383 52.7329C51.6999 52.5668 51.7308 52.3869 51.7308 52.1931C51.7308 51.9993 51.6999 51.8187 51.6383 51.6513C51.5766 51.4839 51.4816 51.3487 51.3532 51.2455C51.2249 51.1423 51.0613 51.0907 50.8624 51.0907C50.6636 51.0907 50.5 51.1423 50.3716 51.2455C50.2433 51.3487 50.1483 51.4839 50.0866 51.6513C50.0249 51.8187 49.9941 51.9993 49.9941 52.1931C49.9941 52.3869 50.0249 52.5668 50.0866 52.7329C50.1483 52.8991 50.2433 53.0331 50.3716 53.135C50.5 53.2369 50.6636 53.2879 50.8624 53.2879ZM54.1474 50.7283V51.1058H52.5844V50.7283H54.1474ZM53.0526 53.6277V50.3281C53.0526 50.162 53.0916 50.0235 53.1696 49.9128C53.2476 49.802 53.3489 49.719 53.4735 49.6636C53.5981 49.6082 53.7296 49.5806 53.868 49.5806C53.9775 49.5806 54.0669 49.5894 54.1361 49.607C54.2053 49.6246 54.2569 49.641 54.2909 49.6561L54.1625 50.0412C54.1399 50.0336 54.1084 50.0242 54.0681 50.0128C54.0291 50.0015 53.9775 49.9958 53.9133 49.9958C53.7661 49.9958 53.6598 50.033 53.5943 50.1072C53.5302 50.1815 53.4981 50.2903 53.4981 50.4338V53.6277H53.0526ZM58.4413 50.7283C58.4187 50.537 58.3268 50.3885 58.1657 50.2828C58.0047 50.1771 57.8071 50.1242 57.573 50.1242C57.4019 50.1242 57.2521 50.1519 57.1238 50.2073C56.9967 50.2626 56.8972 50.3388 56.8255 50.4357C56.755 50.5326 56.7198 50.6427 56.7198 50.766C56.7198 50.8692 56.7443 50.9579 56.7934 51.0322C56.8438 51.1052 56.9079 51.1662 56.986 51.2153C57.064 51.2631 57.1458 51.3027 57.2314 51.3342C57.3169 51.3644 57.3956 51.3889 57.4673 51.4078L57.8599 51.5135C57.9606 51.5399 58.0726 51.5764 58.1959 51.623C58.3205 51.6696 58.4395 51.7331 58.5527 51.8137C58.6672 51.8929 58.7616 51.9949 58.8359 52.1195C58.9101 52.244 58.9472 52.3969 58.9472 52.5782C58.9472 52.7871 58.8925 52.9758 58.783 53.1444C58.6748 53.3131 58.5162 53.4471 58.3073 53.5465C58.0997 53.6459 57.8474 53.6956 57.5504 53.6956C57.2735 53.6956 57.0338 53.651 56.8312 53.5616C56.6298 53.4723 56.4713 53.3477 56.3555 53.1879C56.241 53.028 56.1762 52.8424 56.1611 52.631H56.6443C56.6569 52.777 56.706 52.8978 56.7915 52.9934C56.8784 53.0878 56.9879 53.1583 57.12 53.2049C57.2534 53.2502 57.3968 53.2728 57.5504 53.2728C57.7291 53.2728 57.8895 53.2439 58.0317 53.186C58.1739 53.1268 58.2866 53.045 58.3696 52.9406C58.4527 52.8349 58.4942 52.7115 58.4942 52.5706C58.4942 52.4422 58.4583 52.3378 58.3866 52.2573C58.3149 52.1767 58.2205 52.1113 58.1035 52.0609C57.9864 52.0106 57.8599 51.9666 57.724 51.9288L57.2483 51.7929C56.9463 51.7061 56.7072 51.5821 56.531 51.421C56.3549 51.2599 56.2668 51.0492 56.2668 50.7887C56.2668 50.5722 56.3253 50.3834 56.4423 50.2224C56.5606 50.06 56.7192 49.9342 56.918 49.8448C57.1181 49.7542 57.3415 49.7089 57.5881 49.7089C57.8373 49.7089 58.0588 49.7536 58.2526 49.8429C58.4464 49.931 58.5999 50.0518 58.7132 50.2054C58.8277 50.3589 58.8881 50.5332 58.8944 50.7283H58.4413ZM60.9175 50.7283V51.1058H59.4149V50.7283H60.9175ZM59.8528 50.0336H60.2983V52.7971C60.2983 52.923 60.3166 53.0173 60.3531 53.0803C60.3908 53.1419 60.4386 53.1835 60.4965 53.2049C60.5557 53.225 60.618 53.2351 60.6834 53.2351C60.7325 53.2351 60.7727 53.2325 60.8042 53.2275C60.8357 53.2212 60.8608 53.2162 60.8797 53.2124L60.9703 53.6126C60.9401 53.6239 60.898 53.6352 60.8439 53.6466C60.7897 53.6591 60.7212 53.6654 60.6381 53.6654C60.5123 53.6654 60.3889 53.6384 60.2681 53.5843C60.1486 53.5302 60.0492 53.4477 59.9699 53.337C59.8918 53.2262 59.8528 53.0866 59.8528 52.9179V50.0336ZM62.4408 53.6956C62.2571 53.6956 62.0903 53.661 61.9406 53.5918C61.7908 53.5213 61.6719 53.42 61.5838 53.2879C61.4957 53.1545 61.4517 52.9934 61.4517 52.8047C61.4517 52.6386 61.4844 52.5039 61.5498 52.4007C61.6153 52.2963 61.7027 52.2145 61.8122 52.1553C61.9217 52.0962 62.0425 52.0521 62.1746 52.0232C62.308 51.993 62.4421 51.9691 62.5767 51.9515C62.7529 51.9288 62.8957 51.9118 63.0052 51.9005C63.116 51.8879 63.1965 51.8671 63.2468 51.8382C63.2984 51.8092 63.3242 51.7589 63.3242 51.6872V51.6721C63.3242 51.4858 63.2733 51.3411 63.1713 51.2379C63.0706 51.1347 62.9177 51.0831 62.7126 51.0831C62.4999 51.0831 62.3332 51.1297 62.2124 51.2228C62.0916 51.3159 62.0066 51.4154 61.9576 51.5211L61.5347 51.3701C61.6102 51.1939 61.7109 51.0567 61.8368 50.9585C61.9639 50.8591 62.1023 50.7899 62.252 50.7509C62.403 50.7106 62.5515 50.6905 62.6975 50.6905C62.7906 50.6905 62.8976 50.7018 63.0184 50.7245C63.1405 50.7459 63.2582 50.7905 63.3714 50.8585C63.4859 50.9265 63.5809 51.029 63.6564 51.1662C63.732 51.3034 63.7697 51.4871 63.7697 51.7174V53.6277H63.3242V53.2351H63.3016C63.2714 53.298 63.221 53.3653 63.1506 53.437C63.0801 53.5088 62.9863 53.5698 62.8693 53.6201C62.7523 53.6705 62.6094 53.6956 62.4408 53.6956ZM62.5088 53.2955C62.6849 53.2955 62.8334 53.2609 62.9542 53.1916C63.0763 53.1224 63.1682 53.0331 63.2298 52.9236C63.2928 52.8141 63.3242 52.699 63.3242 52.5782V52.1704C63.3053 52.1931 63.2638 52.2138 63.1996 52.2327C63.1367 52.2503 63.0637 52.2661 62.9807 52.2799C62.8989 52.2925 62.819 52.3038 62.7409 52.3139C62.6642 52.3227 62.6019 52.3302 62.5541 52.3365C62.4383 52.3516 62.3301 52.3762 62.2294 52.4102C62.13 52.4429 62.0494 52.4926 61.9878 52.5593C61.9274 52.6247 61.8972 52.7141 61.8972 52.8273C61.8972 52.9821 61.9544 53.0991 62.0689 53.1784C62.1847 53.2564 62.3313 53.2955 62.5088 53.2955ZM64.5828 53.6277V50.7283H65.0132V51.1662H65.0434C65.0963 51.0227 65.1919 50.9063 65.3303 50.817C65.4688 50.7276 65.6248 50.683 65.7985 50.683C65.8312 50.683 65.8721 50.6836 65.9212 50.6848C65.9702 50.6861 66.0074 50.688 66.0325 50.6905V51.1435C66.0174 51.1398 65.9828 51.1341 65.9287 51.1265C65.8759 51.1177 65.8199 51.1133 65.7607 51.1133C65.6198 51.1133 65.4939 51.1429 65.3832 51.2021C65.2737 51.2599 65.1869 51.3405 65.1227 51.4437C65.0598 51.5456 65.0283 51.662 65.0283 51.7929V53.6277H64.5828ZM68.0032 50.7283V51.1058H66.5007V50.7283H68.0032ZM66.9386 50.0336H67.3841V52.7971C67.3841 52.923 67.4023 53.0173 67.4388 53.0803C67.4766 53.1419 67.5244 53.1835 67.5823 53.2049C67.6414 53.225 67.7037 53.2351 67.7692 53.2351C67.8182 53.2351 67.8585 53.2325 67.89 53.2275C67.9214 53.2212 67.9466 53.2162 67.9655 53.2124L68.0561 53.6126C68.0259 53.6239 67.9837 53.6352 67.9296 53.6466C67.8755 53.6591 67.8069 53.6654 67.7239 53.6654C67.598 53.6654 67.4747 53.6384 67.3539 53.5843C67.2343 53.5302 67.1349 53.4477 67.0556 53.337C66.9776 53.2262 66.9386 53.0866 66.9386 52.9179V50.0336ZM70.5006 52.4422V50.7283H70.9461V53.6277H70.5006V53.1369H70.4704C70.4024 53.2841 70.2967 53.4093 70.1533 53.5125C70.0098 53.6145 69.8286 53.6654 69.6096 53.6654C69.4284 53.6654 69.2673 53.6258 69.1264 53.5465C68.9854 53.466 68.8747 53.3452 68.7942 53.1841C68.7136 53.0217 68.6733 52.8173 68.6733 52.5706V50.7283H69.1188V52.5404C69.1188 52.7518 69.178 52.9204 69.2963 53.0463C69.4158 53.1721 69.5681 53.2351 69.7531 53.2351C69.8638 53.2351 69.9765 53.2067 70.091 53.1501C70.2068 53.0935 70.3036 53.0066 70.3817 52.8896C70.461 52.7726 70.5006 52.6235 70.5006 52.4422ZM71.762 54.715V50.7283H72.1924V51.1888H72.2453C72.278 51.1385 72.3233 51.0743 72.3812 50.9963C72.4403 50.917 72.5246 50.8465 72.6341 50.7849C72.7449 50.722 72.8946 50.6905 73.0834 50.6905C73.3275 50.6905 73.5427 50.7515 73.7289 50.8736C73.9152 50.9957 74.0605 51.1687 74.165 51.3927C74.2694 51.6167 74.3217 51.881 74.3217 52.1855C74.3217 52.4926 74.2694 52.7587 74.165 52.984C74.0605 53.208 73.9158 53.3817 73.7308 53.505C73.5458 53.6271 73.3325 53.6881 73.0909 53.6881C72.9047 53.6881 72.7556 53.6573 72.6436 53.5956C72.5316 53.5327 72.4453 53.4616 72.3849 53.3823C72.3245 53.3018 72.278 53.2351 72.2453 53.1822H72.2075V54.715H71.762ZM72.2 52.178C72.2 52.3969 72.232 52.5901 72.2962 52.7575C72.3604 52.9236 72.4542 53.0538 72.5775 53.1482C72.7008 53.2413 72.8518 53.2879 73.0305 53.2879C73.2168 53.2879 73.3722 53.2388 73.4968 53.1407C73.6226 53.0413 73.717 52.9079 73.7799 52.7405C73.8441 52.5719 73.8762 52.3844 73.8762 52.178C73.8762 51.9741 73.8447 51.7904 73.7818 51.6268C73.7201 51.4619 73.6264 51.3317 73.5005 51.236C73.376 51.1391 73.2193 51.0907 73.0305 51.0907C72.8493 51.0907 72.697 51.1366 72.5737 51.2285C72.4504 51.3191 72.3573 51.4462 72.2943 51.6098C72.2314 51.7721 72.2 51.9615 72.2 52.178ZM77.055 51.3776L76.6548 51.4909C76.6296 51.4242 76.5925 51.3594 76.5434 51.2964C76.4956 51.2323 76.4302 51.1794 76.3471 51.1379C76.2641 51.0963 76.1577 51.0756 76.0281 51.0756C75.8507 51.0756 75.7028 51.1165 75.5845 51.1983C75.4675 51.2788 75.409 51.3814 75.409 51.506C75.409 51.6167 75.4492 51.7042 75.5298 51.7684C75.6103 51.8325 75.7361 51.886 75.9073 51.9288L76.3377 52.0345C76.5969 52.0974 76.7901 52.1937 76.9172 52.3233C77.0443 52.4517 77.1078 52.6172 77.1078 52.8198C77.1078 52.9859 77.06 53.1344 76.9644 53.2653C76.87 53.3961 76.7379 53.4993 76.568 53.5748C76.3981 53.6503 76.2005 53.6881 75.9753 53.6881C75.6795 53.6881 75.4348 53.6239 75.241 53.4956C75.0472 53.3672 74.9245 53.1797 74.8729 52.933L75.2957 52.8273C75.336 52.9834 75.4121 53.1004 75.5241 53.1784C75.6374 53.2564 75.7852 53.2955 75.9677 53.2955C76.1753 53.2955 76.3402 53.2514 76.4623 53.1633C76.5856 53.074 76.6473 52.967 76.6473 52.8424C76.6473 52.7417 76.612 52.6574 76.5415 52.5895C76.4711 52.5203 76.3628 52.4687 76.2169 52.4347L75.7336 52.3214C75.4681 52.2585 75.273 52.161 75.1485 52.0288C75.0251 51.8955 74.9635 51.7287 74.9635 51.5286C74.9635 51.365 75.0094 51.2203 75.1013 51.0945C75.1944 50.9686 75.3209 50.8698 75.4807 50.7981C75.6418 50.7264 75.8242 50.6905 76.0281 50.6905C76.315 50.6905 76.5403 50.7534 76.7039 50.8793C76.8687 51.0051 76.9858 51.1712 77.055 51.3776Z" fill="#FF6700"/>
<mask id="mask0_23_2349" style="mask-type:alpha" maskUnits="userSpaceOnUse" x="97" y="15" width="36" height="41">
<path d="M112.779 15.8063H97.9923L117.375 35.3883L97.7925 54.9704H111.58C111.58 54.9704 113.57 54.9276 114.777 54.5707C115.848 54.2538 117.375 53.3718 117.375 53.3718L130.163 40.3838C130.163 40.3838 131.942 37.3354 131.961 35.1885C131.981 32.8685 129.963 29.5936 129.963 29.5936L117.175 17.205C117.175 17.205 116.042 16.2885 115.177 16.0061C114.283 15.7145 112.779 15.8063 112.779 15.8063Z" fill="#670BFF" stroke="black" stroke-width="0.399633"/>
</mask>
<g mask="url(#mask0_23_2349)">
<rect x="96.5938" y="15.7926" width="37.5656" height="39.1641" fill="#670BFF"/>
<g filter="url(#filter0_i_23_2349)">
<circle cx="106.584" cy="48.9618" r="16.9361" transform="rotate(-149.596 106.584 48.9618)" fill="url(#paint0_linear_23_2349)"/>
</g>
</g>
<path d="M133.759 39.1712C134.133 38.1185 134.359 36.3738 134.359 36.3738L150.144 51.9595H136.357L134.758 51.5599L133.559 50.7606L128.564 45.7652C128.564 45.7652 131.363 43.4895 132.56 41.569C133.114 40.6805 133.409 40.1577 133.759 39.1712Z" fill="#670BFF"/>
<path d="M132.361 28.7807C131.203 27.0289 128.764 24.7844 128.764 24.7844L133.16 19.9888C133.16 19.9888 133.948 19.2687 134.559 18.9897C135.144 18.7223 136.157 18.5901 136.157 18.5901H149.945L134.359 34.3756C134.359 34.3756 134.262 32.7586 133.959 31.778C133.568 30.5105 133.092 29.8876 132.361 28.7807Z" fill="#670BFF"/>
<defs>
<filter id="filter0_i_23_2349" x="89.645" y="32.0229" width="33.8779" height="34.2374" filterUnits="userSpaceOnUse" color-interpolation-filters="sRGB">
<feFlood flood-opacity="0" result="BackgroundImageFix"/>
<feBlend mode="normal" in="SourceGraphic" in2="BackgroundImageFix" result="shape"/>
<feColorMatrix in="SourceAlpha" type="matrix" values="0 0 0 0 0 0 0 0 0 0 0 0 0 0 0 0 0 0 127 0" result="hardAlpha"/>
<feOffset dy="3.5967"/>
<feGaussianBlur stdDeviation="0.179835"/>
<feComposite in2="hardAlpha" operator="arithmetic" k2="-1" k3="1"/>
<feColorMatrix type="matrix" values="0 0 0 0 0 0 0 0 0 0 0 0 0 0 0 0 0 0 0.15 0"/>
<feBlend mode="normal" in2="shape" result="effect1_innerShadow_23_2349"/>
</filter>
<linearGradient id="paint0_linear_23_2349" x1="123.52" y1="32.0256" x2="102.939" y2="72.2079" gradientUnits="userSpaceOnUse">
<stop stop-color="#FAA706"/>
<stop offset="0.81865" stop-color="#FF6700"/>
</linearGradient>
</defs>
</svg>
