<svg width="300" height="300" viewBox="0 0 300 300" fill="none" xmlns="http://www.w3.org/2000/svg">
<g filter="url(#filter0_f_1595_12749)">
<path d="M189.093 178.126L164.812 202.407L178.124 215.626L215.624 178.126L178.124 140.626L164.812 153.845L189.093 178.126ZM110.905 178.126L135.187 153.845L121.874 140.626L84.374 178.126L121.874 215.626L135.187 202.407L110.905 178.126Z" fill="url(#paint0_linear_1595_12749)"/>
<path d="M84.375 84.3757C89.5527 84.3757 93.75 80.1784 93.75 75.0007C93.75 69.8231 89.5527 65.6257 84.375 65.6257C79.1973 65.6257 75 69.8231 75 75.0007C75 80.1784 79.1973 84.3757 84.375 84.3757Z" fill="url(#paint1_linear_1595_12749)"/>
<path d="M56.249 84.3757C61.4267 84.3757 65.624 80.1784 65.624 75.0007C65.624 69.8231 61.4267 65.6257 56.249 65.6257C51.0714 65.6257 46.874 69.8231 46.874 75.0007C46.874 80.1784 51.0714 84.3757 56.249 84.3757Z" fill="url(#paint2_linear_1595_12749)"/>
<path d="M262.5 37.4988H37.5C27.1594 37.4988 18.75 45.9175 18.75 56.2488V243.749C18.75 254.089 27.1594 262.499 37.5 262.499H262.5C272.841 262.499 281.25 254.089 281.25 243.749V56.2488C281.25 45.9175 272.841 37.4988 262.5 37.4988ZM262.5 56.2488V93.7488H37.5V56.2488H262.5ZM37.5 243.749V112.499H262.5V243.749H37.5Z" fill="url(#paint3_linear_1595_12749)"/>
</g>
<path d="M189.093 178.126L164.812 202.407L178.124 215.626L215.624 178.126L178.124 140.626L164.812 153.845L189.093 178.126ZM110.905 178.126L135.187 153.845L121.874 140.626L84.374 178.126L121.874 215.626L135.187 202.407L110.905 178.126Z" fill="url(#paint4_linear_1595_12749)"/>
<path d="M84.375 84.3757C89.5527 84.3757 93.75 80.1784 93.75 75.0007C93.75 69.8231 89.5527 65.6257 84.375 65.6257C79.1973 65.6257 75 69.8231 75 75.0007C75 80.1784 79.1973 84.3757 84.375 84.3757Z" fill="url(#paint5_linear_1595_12749)"/>
<path d="M56.249 84.3757C61.4267 84.3757 65.624 80.1784 65.624 75.0007C65.624 69.8231 61.4267 65.6257 56.249 65.6257C51.0714 65.6257 46.874 69.8231 46.874 75.0007C46.874 80.1784 51.0714 84.3757 56.249 84.3757Z" fill="url(#paint6_linear_1595_12749)"/>
<path d="M262.5 37.4988H37.5C27.1594 37.4988 18.75 45.9175 18.75 56.2488V243.749C18.75 254.089 27.1594 262.499 37.5 262.499H262.5C272.841 262.499 281.25 254.089 281.25 243.749V56.2488C281.25 45.9175 272.841 37.4988 262.5 37.4988ZM262.5 56.2488V93.7488H37.5V56.2488H262.5ZM37.5 243.749V112.499H262.5V243.749H37.5Z" fill="url(#paint7_linear_1595_12749)"/>
<defs>
<filter id="filter0_f_1595_12749" x="-7.24091" y="-7.24091" width="314.482" height="314.482" filterUnits="userSpaceOnUse" color-interpolation-filters="sRGB">
<feFlood flood-opacity="0" result="BackgroundImageFix"/>
<feBlend mode="normal" in="SourceGraphic" in2="BackgroundImageFix" result="shape"/>
<feGaussianBlur stdDeviation="3.62045" result="effect1_foregroundBlur_1595_12749"/>
</filter>
<linearGradient id="paint0_linear_1595_12749" x1="149.999" y1="140.626" x2="149.999" y2="215.626" gradientUnits="userSpaceOnUse">
<stop stop-color="#670BFF"/>
<stop offset="1" stop-color="#FF6700"/>
</linearGradient>
<linearGradient id="paint1_linear_1595_12749" x1="84.375" y1="65.6257" x2="84.375" y2="84.3757" gradientUnits="userSpaceOnUse">
<stop stop-color="#670BFF"/>
<stop offset="1" stop-color="#FF6700"/>
</linearGradient>
<linearGradient id="paint2_linear_1595_12749" x1="56.249" y1="65.6257" x2="56.249" y2="84.3757" gradientUnits="userSpaceOnUse">
<stop stop-color="#670BFF"/>
<stop offset="1" stop-color="#FF6700"/>
</linearGradient>
<linearGradient id="paint3_linear_1595_12749" x1="150" y1="37.4988" x2="150" y2="262.499" gradientUnits="userSpaceOnUse">
<stop stop-color="#670BFF"/>
<stop offset="1" stop-color="#FF6700"/>
</linearGradient>
<linearGradient id="paint4_linear_1595_12749" x1="149.999" y1="140.626" x2="149.999" y2="215.626" gradientUnits="userSpaceOnUse">
<stop stop-color="#670BFF"/>
<stop offset="1" stop-color="#FF6700"/>
</linearGradient>
<linearGradient id="paint5_linear_1595_12749" x1="84.375" y1="65.6257" x2="84.375" y2="84.3757" gradientUnits="userSpaceOnUse">
<stop offset="0.495192" stop-color="#670BFF"/>
<stop offset="1" stop-color="#FF6700"/>
</linearGradient>
<linearGradient id="paint6_linear_1595_12749" x1="56.249" y1="65.6257" x2="56.249" y2="84.3757" gradientUnits="userSpaceOnUse">
<stop offset="0.495192" stop-color="#670BFF"/>
<stop offset="1" stop-color="#FF6700"/>
</linearGradient>
<linearGradient id="paint7_linear_1595_12749" x1="150" y1="37.4988" x2="150" y2="262.499" gradientUnits="userSpaceOnUse">
<stop offset="0.495192" stop-color="#670BFF"/>
<stop offset="1" stop-color="#FF6700"/>
</linearGradient>
</defs>
</svg>
