<svg width="63" height="63" viewBox="0 0 63 63" fill="none" xmlns="http://www.w3.org/2000/svg">
<g filter="url(#filter0_ii_830_8438)">
<rect x="4.59033" y="4.24023" width="54" height="54" rx="27" fill="url(#paint0_linear_830_8438)"/>
<g filter="url(#filter1_d_830_8438)">
<rect x="4.59033" y="4.24023" width="54" height="54" rx="27" stroke="url(#paint1_linear_830_8438)" stroke-width="1.51963" shape-rendering="crispEdges"/>
</g>
<path d="M24.0903 35.7406C22.5903 37.0006 22.0903 40.7406 22.0903 40.7406C22.0903 40.7406 25.8303 40.2406 27.0903 38.7406C27.8003 37.9006 27.7903 36.6106 27.0003 35.8306C26.6116 35.4596 26.0996 35.2452 25.5626 35.2286C25.0255 35.212 24.5012 35.3943 24.0903 35.7406Z" stroke="white" stroke-width="2" stroke-linecap="round" stroke-linejoin="round"/>
<path d="M31.5903 34.2405L28.5903 31.2405C29.1225 29.8599 29.7925 28.5365 30.5903 27.2905C31.7555 25.4275 33.378 23.8935 35.3033 22.8346C37.2287 21.7756 39.393 21.2269 41.5903 21.2405C41.5903 23.9605 40.8103 28.7405 35.5903 32.2405C34.3272 33.0392 32.9872 33.7092 31.5903 34.2405Z" stroke="white" stroke-width="2" stroke-linecap="round" stroke-linejoin="round"/>
<path d="M28.5903 31.2398H23.5903C23.5903 31.2398 24.1403 28.2098 25.5903 27.2398C27.2103 26.1598 30.5903 27.2398 30.5903 27.2398" stroke="white" stroke-width="2" stroke-linecap="round" stroke-linejoin="round"/>
<path d="M31.5903 34.2402V39.2402C31.5903 39.2402 34.6203 38.6902 35.5903 37.2402C36.6703 35.6202 35.5903 32.2402 35.5903 32.2402" stroke="white" stroke-width="2" stroke-linecap="round" stroke-linejoin="round"/>
</g>
<defs>
<filter id="filter0_ii_830_8438" x="3.83057" y="1.45429" width="55.5195" height="60.585" filterUnits="userSpaceOnUse" color-interpolation-filters="sRGB">
<feFlood flood-opacity="0" result="BackgroundImageFix"/>
<feBlend mode="normal" in="SourceGraphic" in2="BackgroundImageFix" result="shape"/>
<feColorMatrix in="SourceAlpha" type="matrix" values="0 0 0 0 0 0 0 0 0 0 0 0 0 0 0 0 0 0 127 0" result="hardAlpha"/>
<feOffset dy="3.03927"/>
<feGaussianBlur stdDeviation="1.94175"/>
<feComposite in2="hardAlpha" operator="arithmetic" k2="-1" k3="1"/>
<feColorMatrix type="matrix" values="0 0 0 0 0.992157 0 0 0 0 0.682353 0 0 0 0 1 0 0 0 0.55 0"/>
<feBlend mode="normal" in2="shape" result="effect1_innerShadow_830_8438"/>
<feColorMatrix in="SourceAlpha" type="matrix" values="0 0 0 0 0 0 0 0 0 0 0 0 0 0 0 0 0 0 127 0" result="hardAlpha"/>
<feOffset dy="-2.02618"/>
<feGaussianBlur stdDeviation="4.64332"/>
<feComposite in2="hardAlpha" operator="arithmetic" k2="-1" k3="1"/>
<feColorMatrix type="matrix" values="0 0 0 0 0.992157 0 0 0 0 0.682353 0 0 0 0 1 0 0 0 0.75 0"/>
<feBlend mode="normal" in2="effect1_innerShadow_830_8438" result="effect2_innerShadow_830_8438"/>
</filter>
<filter id="filter1_d_830_8438" x="0.453604" y="0.103507" width="62.2735" height="62.2735" filterUnits="userSpaceOnUse" color-interpolation-filters="sRGB">
<feFlood flood-opacity="0" result="BackgroundImageFix"/>
<feColorMatrix in="SourceAlpha" type="matrix" values="0 0 0 0 0 0 0 0 0 0 0 0 0 0 0 0 0 0 127 0" result="hardAlpha"/>
<feOffset/>
<feGaussianBlur stdDeviation="1.68848"/>
<feComposite in2="hardAlpha" operator="out"/>
<feColorMatrix type="matrix" values="0 0 0 0 0.993667 0 0 0 0 0.683333 0 0 0 0 1 0 0 0 0.7 0"/>
<feBlend mode="normal" in2="BackgroundImageFix" result="effect1_dropShadow_830_8438"/>
<feBlend mode="normal" in="SourceGraphic" in2="effect1_dropShadow_830_8438" result="shape"/>
</filter>
<linearGradient id="paint0_linear_830_8438" x1="31.5903" y1="4.24023" x2="31.5903" y2="58.2402" gradientUnits="userSpaceOnUse">
<stop stop-color="#670BFF"/>
<stop offset="1" stop-color="#FF6700"/>
</linearGradient>
<linearGradient id="paint1_linear_830_8438" x1="23.9805" y1="4.24024" x2="48.0765" y2="13.0262" gradientUnits="userSpaceOnUse">
<stop stop-color="white"/>
<stop offset="1" stop-color="#FEFEFE"/>
</linearGradient>
</defs>
</svg>
