<svg width="24" height="24" viewBox="0 0 24 24" fill="none" xmlns="http://www.w3.org/2000/svg">
<path d="M12 16C12.2346 15.03 12.7321 14.1435 13.4378 13.4378C14.1435 12.7321 15.03 12.2346 16 12C15.03 11.7654 14.1435 11.2679 13.4378 10.5622C12.7321 9.85653 12.2346 8.96999 12 8C11.7654 8.96999 11.2679 9.85653 10.5622 10.5622C9.85653 11.2679 8.96999 11.7654 8 12C8.96999 12.2346 9.85653 12.7321 10.5622 13.4378C11.2679 14.1435 11.7654 15.03 12 16Z" stroke="url(#paint0_linear_477_2110)" stroke-width="1.5" stroke-linecap="round" stroke-linejoin="round"/>
<path d="M17 20.6603C15.6716 21.4272 14.1846 21.8783 12.654 21.9786C11.1234 22.0789 9.59028 21.8258 8.17317 21.2388C6.75605 20.6518 5.49296 19.7467 4.4816 18.5935C3.47025 17.4402 2.73774 16.0698 2.34074 14.5882C1.94375 13.1066 1.8929 11.5535 2.19215 10.0491C2.49139 8.54469 3.1327 7.12929 4.06647 5.91239C5.00023 4.69548 6.20142 3.70969 7.57711 3.03127C8.95281 2.35286 10.4661 2 12 2" stroke="url(#paint1_linear_477_2110)" stroke-width="1.5" stroke-linecap="round" stroke-linejoin="round"/>
<path d="M12 2C14.2013 2 16.3412 2.72637 18.0876 4.06647C19.8341 5.40656 21.0895 7.28548 21.6593 9.41181C22.229 11.5381 22.0812 13.7931 21.2388 15.8268C20.3964 17.8606 18.9064 19.5596 17 20.6603" stroke="url(#paint2_linear_477_2110)" stroke-width="1.5" stroke-linecap="round" stroke-linejoin="round" stroke-dasharray="3 3"/>
<defs>
<linearGradient id="paint0_linear_477_2110" x1="12" y1="8" x2="12" y2="16" gradientUnits="userSpaceOnUse">
<stop stop-color="#FAA706" stop-opacity="0.6"/>
<stop offset="1" stop-color="#FAA706" stop-opacity="0.01"/>
</linearGradient>
<linearGradient id="paint1_linear_477_2110" x1="9.5" y1="2" x2="9.5" y2="22" gradientUnits="userSpaceOnUse">
<stop stop-color="#FAA706" stop-opacity="0.6"/>
<stop offset="1" stop-color="#FAA706" stop-opacity="0.01"/>
</linearGradient>
<linearGradient id="paint2_linear_477_2110" x1="17" y1="2" x2="17" y2="20.6603" gradientUnits="userSpaceOnUse">
<stop stop-color="#FAA706" stop-opacity="0.6"/>
<stop offset="1" stop-color="#FAA706" stop-opacity="0.01"/>
</linearGradient>
</defs>
</svg>
