<svg width="113" height="85" viewBox="0 0 113 85" fill="none" xmlns="http://www.w3.org/2000/svg">
<mask id="mask0_414_16376" style="mask-type:alpha" maskUnits="userSpaceOnUse" x="0" y="-1" width="74" height="86">
<path d="M32.614 0.0293527H0.910844L42.4677 42.0147L0.482422 84H30.0435C30.0435 84 34.3113 83.9084 36.8983 83.1432C39.1954 82.4637 42.4677 80.5726 42.4677 80.5726L69.8867 52.7252C69.8867 52.7252 73.7023 46.1894 73.7425 41.5863C73.786 36.612 69.4583 29.5904 69.4583 29.5904L42.0393 3.0283C42.0393 3.0283 39.6099 1.06321 37.7551 0.457774C35.8399 -0.167376 32.614 0.0293527 32.614 0.0293527Z" fill="#2B2B2B" stroke="black" stroke-width="0.399633"/>
</mask>
<g mask="url(#mask0_414_16376)">
<rect x="-2.08789" width="80.5433" height="83.9706" fill="white"/>
<g filter="url(#filter0_i_414_16376)">
<circle cx="19.3324" cy="71.1174" r="36.3123" transform="rotate(-149.596 19.3324 71.1174)" fill="white"/>
</g>
</g>
<path d="M77.5979 50.1253C78.4002 47.8682 78.8832 44.1274 78.8832 44.1274L112.729 77.5443H83.1674L79.7401 76.6875L77.1695 74.9738L66.459 64.2633C66.459 64.2633 72.461 59.3841 75.0274 55.2664C76.2147 53.3614 76.8462 52.2404 77.5979 50.1253Z" fill="white"/>
<path d="M74.6003 27.8471C72.1186 24.091 66.8887 19.2786 66.8887 19.2786L76.3139 8.99651C76.3139 8.99651 78.0038 7.45255 79.3129 6.8544C80.5678 6.28101 82.7403 5.99756 82.7403 5.99756H112.301L78.8845 39.8429C78.8845 39.8429 78.6771 36.376 78.0276 34.2734C77.1882 31.5558 76.1681 30.2201 74.6003 27.8471Z" fill="white"/>
<defs>
<filter id="filter0_i_414_16376" x="-16.9863" y="34.7993" width="72.6367" height="72.9959" filterUnits="userSpaceOnUse" color-interpolation-filters="sRGB">
<feFlood flood-opacity="0" result="BackgroundImageFix"/>
<feBlend mode="normal" in="SourceGraphic" in2="BackgroundImageFix" result="shape"/>
<feColorMatrix in="SourceAlpha" type="matrix" values="0 0 0 0 0 0 0 0 0 0 0 0 0 0 0 0 0 0 127 0" result="hardAlpha"/>
<feOffset dy="3.5967"/>
<feGaussianBlur stdDeviation="0.179835"/>
<feComposite in2="hardAlpha" operator="arithmetic" k2="-1" k3="1"/>
<feColorMatrix type="matrix" values="0 0 0 0 0 0 0 0 0 0 0 0 0 0 0 0 0 0 0.15 0"/>
<feBlend mode="normal" in2="shape" result="effect1_innerShadow_414_16376"/>
</filter>
</defs>
</svg>
