<svg width="271" height="98" viewBox="0 0 271 98" fill="none" xmlns="http://www.w3.org/2000/svg">
<path d="M21.329 82.5193C16.1368 82.5193 11.8333 81.4201 8.41856 79.2223C5.00386 77.0244 2.61824 74.0548 1.26172 70.3138L11.997 64.0708C13.8213 68.4199 17.0489 70.5944 21.6798 70.5944C25.5155 70.5944 27.4333 69.4954 27.4333 67.2975C27.4333 65.8478 26.3341 64.6787 24.1356 63.7902C23.2 63.4161 21.1418 62.7848 17.961 61.8962C13.4705 60.5869 9.91545 58.7631 7.29591 56.4248C4.67642 54.0399 3.36667 50.743 3.36667 46.5342C3.36667 41.9981 4.98047 38.3271 8.20805 35.5212C11.4824 32.7154 15.552 31.3125 20.4168 31.3125C24.5332 31.3125 28.1818 32.2712 31.3626 34.1885C34.5434 36.1058 36.9758 38.8883 38.6598 42.5359L28.135 48.7088C26.5914 45.0611 24.042 43.2374 20.487 43.2374C18.9901 43.2374 17.8441 43.5413 17.0489 44.1492C16.3005 44.7572 15.9262 45.5288 15.9262 46.4641C15.9262 47.5396 16.4876 48.4515 17.6102 49.1998C18.7797 49.948 21.0249 50.8131 24.3461 51.7952C26.7317 52.4967 28.6495 53.1513 30.0996 53.7593C31.5497 54.3672 33.1401 55.2558 34.8708 56.4248C36.6016 57.5472 37.888 59.0202 38.7299 60.8441C39.5719 62.6211 39.9929 64.7255 39.9929 67.1572C39.9929 71.9737 38.2856 75.7385 34.8708 78.4505C31.4561 81.1631 26.9422 82.5193 21.329 82.5193ZM79.7739 81.4671H66.7229L56.7597 66.5259V81.4671H45.1122V32.3647H56.7597V61.0545L65.8112 46.3939H79.2825L67.4948 63.9305L79.7739 81.4671ZM106.35 46.3939H117.998V81.4671H106.35V78.2404C103.964 81.0463 100.643 82.4489 96.3864 82.4489C91.7088 82.4489 87.7798 80.6953 84.5986 77.1881C81.465 73.634 79.8976 69.2148 79.8976 63.9305C79.8976 58.6462 81.465 54.2503 84.5986 50.743C87.7798 47.1889 91.7088 45.4119 96.3864 45.4119C100.643 45.4119 103.964 46.8148 106.35 49.6207V46.3939ZM93.6501 69.4721C95.0068 70.875 96.7843 71.5764 98.9828 71.5764C101.181 71.5764 102.959 70.875 104.315 69.4721C105.672 68.0691 106.35 66.2219 106.35 63.9305C106.35 61.6391 105.672 59.7919 104.315 58.3889C102.959 56.986 101.181 56.2846 98.9828 56.2846C96.7843 56.2846 95.0068 56.986 93.6501 58.3889C92.2935 59.7919 91.6155 61.6391 91.6155 63.9305C91.6155 66.2219 92.2935 68.0691 93.6501 69.4721ZM147.062 45.4119C151.74 45.4119 155.646 47.1889 158.78 50.743C161.961 54.2503 163.551 58.6462 163.551 63.9305C163.551 69.2148 161.961 73.634 158.78 77.1881C155.646 80.6953 151.74 82.4489 147.062 82.4489C142.806 82.4489 139.484 81.0463 137.099 78.2404V95.4964H125.451V46.3939H137.099V49.6207C139.484 46.8148 142.806 45.4119 147.062 45.4119ZM139.133 69.4721C140.49 70.875 142.268 71.5764 144.466 71.5764C146.664 71.5764 148.442 70.875 149.799 69.4721C151.155 68.0691 151.833 66.2219 151.833 63.9305C151.833 61.6391 151.155 59.7919 149.799 58.3889C148.442 56.986 146.664 56.2846 144.466 56.2846C142.268 56.2846 140.49 56.986 139.133 58.3889C137.777 59.7919 137.099 61.6391 137.099 63.9305C137.099 66.2219 137.777 68.0691 139.133 69.4721Z" fill="white"/>
<mask id="mask0_583_1259" style="mask-type:alpha" maskUnits="userSpaceOnUse" x="153" y="26" width="63" height="71">
<path d="M181.031 26.8248H155.058L189.104 61.2128L154.707 95.6008H178.925C178.925 95.6008 182.422 95.5256 184.541 94.8989C186.423 94.3426 189.104 92.7938 189.104 92.7938L211.568 69.9852C211.568 69.9852 214.694 64.6321 214.727 60.8619C214.762 56.7878 211.217 51.0368 211.217 51.0368L188.754 29.2811C188.754 29.2811 186.763 27.6716 185.243 27.1757C183.674 26.6637 181.031 26.8248 181.031 26.8248Z" fill="#670BFF" stroke="black" stroke-width="1.31587"/>
</mask>
<g mask="url(#mask0_583_1259)">
<path d="M218.584 26.8008H152.598V95.5768H218.584V26.8008Z" fill="white"/>
<g filter="url(#filter0_i_583_1259)">
<path d="M185.208 59.398C171.037 51.085 152.809 55.8306 144.493 69.9975C136.178 84.1644 140.925 102.388 155.096 110.701C169.266 119.014 187.495 114.268 195.81 100.101C204.125 85.9346 199.378 67.711 185.208 59.398Z" fill="url(#paint0_linear_583_1259)"/>
</g>
</g>
<path d="M217.887 67.8559C218.545 66.0072 218.94 62.9434 218.94 62.9434L246.668 90.3134H222.45L219.642 89.6116L217.536 88.2078L208.762 79.4356C208.762 79.4356 213.679 75.4393 215.781 72.0665C216.754 70.5065 217.271 69.5883 217.887 67.8559Z" fill="white"/>
<path d="M215.431 49.6087C213.398 46.5323 209.113 42.5907 209.113 42.5907L216.835 34.1692C216.835 34.1692 218.22 32.9046 219.293 32.4147C220.321 31.9451 222.1 31.7129 222.1 31.7129H246.319L218.942 59.4338C218.942 59.4338 218.771 56.5943 218.239 54.8721C217.552 52.6463 216.716 51.5524 215.431 49.6087Z" fill="white"/>
<path fill-rule="evenodd" clip-rule="evenodd" d="M256.846 26.1904C256.324 27.3741 257.603 26.6987 257.81 27.4551C258.017 28.2115 259.955 26.3801 259.558 28.0174C259.16 29.655 261.222 27.5621 260.921 29.0755C260.62 30.5891 262.778 29.0876 262.105 30.6703C261.433 32.2531 264.722 33.6946 263.236 32.8979C261.749 32.1013 264.227 34.3828 262.563 34.1229C260.898 33.8632 264.189 37.4506 262.372 36.5168C260.555 35.5831 262.704 37.7272 261.176 37.4947C259.649 37.2624 262.195 38.1267 260.572 38.3757C258.949 38.6248 259.569 40.1789 258.536 38.9005C257.503 37.622 255.758 39.2056 256.555 38.4347C257.352 37.6634 254.45 38.2302 254.807 37.5145C255.164 36.7989 252.206 37.2829 253.183 36.6905C254.159 36.098 250.691 34.8356 251.805 34.9859C252.92 35.1362 250.084 33.5705 250.992 33.322C251.9 33.0736 250.18 33.0888 251.128 31.5609C252.076 30.033 249.683 30.9156 251.154 29.9925C252.625 29.0693 251.757 27.3231 252.349 28.2992C252.942 29.2754 252.747 27.0194 253.422 27.5827C254.096 28.1462 253.805 26.014 254.233 27.1005C254.66 28.187 255.538 25.5721 255.773 26.5489C256.008 27.5255 257.01 25.3646 256.846 26.1904Z" fill="#C7D6EA"/>
<path fill-rule="evenodd" clip-rule="evenodd" d="M222.988 22.6801C223.794 20.2791 227.614 11.9753 234.888 9.08829C242.163 6.20123 248.604 4.19926 251.273 8.27738C253.943 12.3557 257.83 21.2083 257.698 28.8012C257.566 36.3941 255.844 32.1759 254.779 28.6144C253.715 25.0527 252.085 24.3341 250.959 23.059C249.833 21.7841 249.794 20.0029 249.744 21.241C249.695 22.4789 247.945 29.2902 246.545 31.7044C245.145 34.1185 220.328 28.7846 222.988 22.6801Z" fill="#C61F10"/>
<path fill-rule="evenodd" clip-rule="evenodd" d="M228.418 14.4997C230.411 13.9236 238.609 9.49993 240.199 8.10893C241.79 6.71767 239.532 10.1436 235.276 12.3837C231.02 14.6237 226.506 15.052 228.418 14.4997Z" fill="#C61F10"/>
<path fill-rule="evenodd" clip-rule="evenodd" d="M240.686 17.9255C240.242 16.2426 241.5 10.5341 244.013 9.78637C246.526 9.03878 250.332 12.3579 251.308 15.0479C252.283 17.738 252.031 18.3446 250.21 16.2745C248.388 14.2043 244.471 13.0961 243.689 14.714C242.907 16.3316 247.242 17.6542 248.065 19.4602C248.888 21.2661 248.524 23.7552 247.372 21.6212C246.22 19.4872 244.21 18.0363 242.708 19.3135C241.206 20.5908 241.053 19.3182 240.686 17.9255Z" fill="#C61F10"/>
<path fill-rule="evenodd" clip-rule="evenodd" d="M237.691 13.7839C238.925 12.6696 239.484 12.6956 239.437 15.5765C239.389 18.4571 239.793 18.4063 238.415 17.0808C237.036 15.7555 236.362 14.9843 237.691 13.7839Z" fill="#C61F10"/>
<path fill-rule="evenodd" clip-rule="evenodd" d="M238.587 19.2152C237.139 18.2074 235.659 16.7633 235.41 15.0451C235.161 13.3269 233.991 15.2239 232.204 15.9735C230.408 16.7269 231.701 18.1725 234.089 19.0421C236.478 19.912 240.601 20.6163 238.587 19.2152Z" fill="#C61F10"/>
<path fill-rule="evenodd" clip-rule="evenodd" d="M222.389 21.8065C221.967 20.1533 223.217 23.8137 223.295 22.3962C223.372 20.9789 224.333 24.0356 224.345 22.6052C224.357 21.1748 224.747 20.9759 225.129 22.4846C225.511 23.9933 226.611 21.2103 226.271 22.9167C225.932 24.6231 227.793 22.1279 227.584 23.1779C227.375 24.2281 229.604 22.6248 229.356 23.5305C229.107 24.4362 230.418 22.9913 230.564 24.3168C230.71 25.6422 231.324 22.5576 232.244 24.1054C233.164 25.653 235.183 24.0764 234.423 25.1532C233.663 26.23 237.243 23.6676 236.693 25.0591C236.144 26.4509 237.363 25.1242 237.994 26.0685C238.624 27.0128 238.937 24.0728 240.158 25.4759C241.38 26.879 242.205 25.1327 241.918 26.2354C241.63 27.338 243.946 25.6702 243.409 26.6552C242.872 27.6399 244.275 25.7357 244.669 26.4966C245.063 27.2573 245.52 24.9604 245.771 26.1018C246.022 27.2433 248.644 24.6949 248.068 26.2177C247.492 27.7405 248.814 24.8653 249.537 26.0326C250.26 27.1999 251.676 25.2302 250.614 26.4515C249.552 27.673 252.058 27.4215 250.523 27.5933C248.988 27.7653 252.046 28.5104 250.432 28.7351C248.819 28.9597 251.852 30.8599 250.342 30.5594C248.833 30.2588 250.684 31.2415 249.674 31.8591C248.665 32.4766 251.014 33.354 249.86 33.67C248.705 33.986 250.085 35.9664 248.942 34.8519C247.8 33.7373 248.656 37.6607 247.88 36.0734C247.105 34.4862 249.077 37.949 246.766 37.5573C244.456 37.1658 245.627 39.5137 244.851 38.2677C244.076 37.0217 243.02 39.5543 243.281 38.2417C243.542 36.9292 240.001 39.2946 240.945 38.3226C241.889 37.3505 240.434 39.1761 239.344 37.7991C238.253 36.422 238.295 38.955 236.85 37.6439C235.405 36.3328 236.129 38.5238 234.382 37.0161C232.635 35.5086 232.938 36.0463 231.626 36.4676C230.314 36.8887 230.26 35.4451 228.804 36.2469C227.348 37.0488 226.597 34.3066 226.769 35.5007C226.941 36.6947 224.828 33.8901 225.04 35.2285C225.251 36.5669 223.831 33.7597 223.95 34.8752C224.069 35.9906 222.466 33.4199 222.283 34.3388C222.1 35.2576 221.232 33.1061 220.55 33.7891C219.868 34.4722 221.271 33.5916 219.329 33.0684C217.386 32.5452 219.053 32.7405 217.963 31.7048C216.872 30.669 216.518 30.394 217.83 29.9727C219.142 29.5516 216.845 29.0943 217.71 28.5161C218.576 27.9379 216.463 27.9265 217.657 27.4138C218.85 26.9009 216.028 25.6568 217.261 25.6293C218.495 25.602 217.311 22.6371 217.863 23.634C218.415 24.6309 217.626 22.7681 218.479 22.5967C219.332 22.4253 219.434 19.8529 219.777 21.2174C220.119 22.5821 220.209 20.4166 220.814 21.4922C221.418 22.5684 221.852 23.1325 222.389 21.8065Z" fill="#C7D6EA"/>
<path fill-rule="evenodd" clip-rule="evenodd" d="M222.67 21.9599C222.264 20.3685 223.468 23.892 223.542 22.5276C223.617 21.1632 224.542 24.1058 224.553 22.7287C224.565 21.3517 225.108 21.2627 225.475 22.7153C225.843 24.1678 226.902 21.4883 226.575 23.1312C226.248 24.7738 228.04 22.3719 227.838 23.3826C227.637 24.3934 229.784 22.8502 229.544 23.7222C229.305 24.5943 230.567 23.2033 230.707 24.4793C230.847 25.7551 231.438 22.7857 232.324 24.2756C233.21 25.7657 235.154 24.2478 234.423 25.2844C233.691 26.3211 237.137 23.8543 236.608 25.1941C236.079 26.5337 237.252 25.2566 237.86 26.1658C238.467 27.0747 238.767 24.2447 239.944 25.5953C241.12 26.9461 241.914 25.265 241.637 26.3266C241.36 27.388 243.86 25.7181 243.343 26.6662C242.826 27.6142 244.176 25.7811 244.556 26.5136C244.935 27.246 245.375 25.0347 245.616 26.1335C245.858 27.2325 248.382 24.7792 247.827 26.2452C247.273 27.7112 248.546 24.9433 249.242 26.067C249.938 27.1906 251.301 25.2945 250.278 26.4704C249.256 27.6462 251.669 27.4039 250.191 27.5695C248.713 27.7351 251.658 28.4525 250.104 28.6686C248.55 28.8847 251.47 30.714 250.017 30.4248C248.564 30.1356 250.346 31.0814 249.374 31.676C248.402 32.2707 250.664 33.1151 249.552 33.4193C248.441 33.7235 249.769 35.6299 248.669 34.5571C247.569 33.4842 248.394 37.2611 247.647 35.7329C246.9 34.2048 248.798 37.5384 246.574 37.1613C244.35 36.7844 245.477 39.0448 244.73 37.8453C243.984 36.6458 242.698 39.1484 242.949 37.8848C243.2 36.6213 239.792 38.8984 240.7 37.9628C241.609 37.0271 240.209 38.7844 239.159 37.4588C238.109 36.1331 238.149 38.5714 236.758 37.3095C235.367 36.0473 236.064 38.1566 234.382 36.7052C232.701 35.2539 232.992 35.7714 231.729 36.1768C230.466 36.5822 230.414 35.1925 229.012 35.9645C227.611 36.7364 226.888 34.0967 227.054 35.2462C227.219 36.3958 225.018 33.5931 225.221 34.8816C225.425 36.17 224.058 33.4677 224.172 34.5414C224.287 35.6152 222.743 33.1404 222.567 34.0248C222.391 34.9093 221.556 32.8381 220.899 33.4958C220.243 34.1533 221.594 33.3055 219.724 32.802C217.853 32.2984 219.458 32.4864 218.408 31.4893C217.359 30.4923 217.017 30.2273 218.28 29.8219C219.543 29.4165 217.332 28.9762 218.165 28.4196C218.998 27.863 216.965 27.852 218.114 27.3584C219.263 26.8646 216.546 25.6669 217.733 25.6406C218.921 25.6143 217.781 22.7601 218.312 23.7197C218.844 24.6796 218.084 22.8861 218.905 22.7212C219.726 22.5562 219.825 20.08 220.155 21.3935C220.484 22.7073 220.571 20.6226 221.153 21.6581C221.736 22.6933 222.153 23.2364 222.67 21.9599Z" fill="#E8ECF4"/>
<path fill-rule="evenodd" clip-rule="evenodd" d="M256.867 26.7311C256.388 27.818 257.562 27.1978 257.753 27.8925C257.943 28.5873 259.722 26.9052 259.357 28.409C258.992 29.9127 260.885 27.9907 260.609 29.3807C260.332 30.7706 262.315 29.3918 261.697 30.8454C261.079 32.2989 264.1 33.6225 262.735 32.8909C261.37 32.1594 263.646 34.2546 262.117 34.016C260.588 33.7774 263.611 37.0719 261.942 36.2143C260.274 35.3567 262.246 37.3257 260.844 37.1123C259.441 36.8988 261.779 37.6927 260.289 37.9214C258.798 38.1502 259.368 39.5772 258.419 38.4032C257.471 37.2291 255.868 38.6835 256.6 37.9752C257.332 37.267 254.667 37.7875 254.995 37.1302C255.322 36.4729 252.606 36.9175 253.503 36.3734C254.399 35.8294 251.215 34.67 252.238 34.8082C253.262 34.9461 250.658 33.5084 251.491 33.2801C252.325 33.0518 250.746 33.066 251.616 31.6628C252.487 30.2596 250.289 31.0702 251.64 30.2225C252.991 29.3748 252.194 27.771 252.738 28.6676C253.282 29.5641 253.103 27.4923 253.722 28.0098C254.342 28.5272 254.075 26.5691 254.467 27.5669C254.86 28.5646 255.666 26.1635 255.882 27.0604C256.097 27.9572 257.018 25.9729 256.867 26.7311Z" fill="#E8ECF4"/>
<path fill-rule="evenodd" clip-rule="evenodd" d="M224.157 24.178C223.898 23.0984 224.686 25.4965 224.759 24.5818C224.831 23.6673 225.434 25.6679 225.462 24.7431C225.491 23.8184 225.872 23.7729 226.107 24.758C226.342 25.7432 227.123 23.9708 226.87 25.0659C226.616 26.1608 227.905 24.5936 227.749 25.2675C227.593 25.9413 229.117 24.9604 228.937 25.54C228.756 26.1193 229.66 25.2177 229.738 26.0786C229.817 26.9392 230.275 24.9599 230.872 25.9837C231.469 27.0076 232.851 26.0383 232.324 26.7158C231.796 27.3932 234.243 25.8255 233.853 26.7117C233.463 27.5978 234.302 26.7704 234.713 27.3966C235.124 28.0231 235.377 26.1297 236.179 27.0676C236.981 28.0054 237.562 26.8968 237.352 27.6027C237.143 28.3085 238.915 27.2515 238.54 27.875C238.164 28.4983 239.135 27.3022 239.39 27.8039C239.644 28.3056 239.985 26.8317 240.137 27.5762C240.289 28.3206 242.091 26.7381 241.681 27.7086C241.271 28.6788 242.203 26.8526 242.673 27.6256C243.143 28.3984 244.124 27.16 243.391 27.9235C242.659 28.6868 244.35 28.5866 243.314 28.6597C242.278 28.7325 244.326 29.2907 243.236 29.3957C242.147 29.5007 244.161 30.805 243.149 30.5732C242.137 30.3412 243.369 31.0228 242.681 31.397C241.992 31.7714 243.561 32.3972 242.779 32.5728C241.997 32.7482 242.898 34.0634 242.145 33.3141C241.392 32.565 241.912 35.1233 241.412 34.0776C240.913 33.032 242.19 35.3203 240.641 35.0095C239.092 34.6985 239.846 36.2462 239.342 35.4211C238.838 34.596 237.901 36.2438 238.096 35.4014C238.29 34.5591 235.873 36.0003 236.523 35.3955C237.172 34.7905 236.166 35.9346 235.452 35.017C234.738 34.0994 234.73 35.7382 233.776 34.8544C232.823 33.9706 233.278 35.4053 232.124 34.3868C230.971 33.3684 231.166 33.7237 230.277 33.9632C229.388 34.2027 229.373 33.2679 228.381 33.7501C227.39 34.2325 226.924 32.4405 227.022 33.2169C227.121 33.9934 225.624 32.0538 225.747 32.9245C225.87 33.7952 224.955 31.9446 225.019 32.6689C225.083 33.3931 224.041 31.6907 223.905 32.2803C223.768 32.8699 223.215 31.4568 222.746 31.8817C222.277 32.3064 223.235 31.772 221.935 31.3853C220.635 30.9987 221.754 31.1664 221.035 30.4694C220.316 29.7724 220.082 29.5856 220.971 29.346C221.86 29.1063 220.32 28.7535 220.912 28.401C221.502 28.0487 220.08 27.9887 220.891 27.6869C221.702 27.3851 219.821 26.5101 220.651 26.523C221.482 26.5361 220.728 24.5893 221.085 25.2476C221.442 25.9062 220.938 24.6818 221.514 24.5922C222.091 24.5026 222.197 22.8418 222.408 23.7327C222.619 24.6236 222.71 23.2256 223.102 23.9361C223.493 24.6466 223.777 25.0222 224.157 24.178Z" fill="white"/>
<path fill-rule="evenodd" clip-rule="evenodd" d="M256.386 27.8445C256.084 28.5312 256.826 28.1394 256.946 28.5783C257.066 29.0172 258.191 27.9546 257.96 28.9047C257.729 29.8546 258.925 28.6405 258.751 29.5186C258.576 30.3967 259.828 29.5256 259.438 30.4438C259.048 31.3619 260.956 32.1984 260.094 31.7363C259.231 31.2742 260.669 32.5978 259.703 32.4471C258.737 32.2961 260.647 34.3777 259.593 33.836C258.539 33.2941 259.785 34.5381 258.899 34.4033C258.013 34.2683 259.49 34.77 258.549 34.9144C257.607 35.0588 257.967 35.9604 257.368 35.2189C256.768 34.4772 255.755 35.3958 256.218 34.9485C256.68 34.5011 254.997 34.8299 255.204 34.4146C255.411 33.9995 253.695 34.2803 254.262 33.9365C254.828 33.5928 252.816 32.8604 253.463 32.9476C254.109 33.0349 252.464 32.1263 252.991 31.9822C253.517 31.8381 252.52 31.8469 253.069 30.9606C253.619 30.0742 252.231 30.5862 253.084 30.0509C253.938 29.5152 253.434 28.502 253.778 29.0684C254.122 29.6349 254.009 28.3258 254.4 28.6528C254.792 28.9798 254.623 27.7426 254.871 28.3729C255.119 29.0033 255.628 27.4864 255.764 28.0529C255.9 28.6193 256.482 27.3655 256.386 27.8445Z" fill="white"/>
<path fill-rule="evenodd" clip-rule="evenodd" d="M255.682 23.4107C255.156 20.2109 253.649 14.0286 251.702 10.8096C250.635 9.04517 249.48 7.92904 248.171 7.40924C247.009 6.9478 244.464 6.76998 242.728 7.51537C240.418 8.50695 238.087 11.7492 235.052 13.0061C233.273 13.7432 229.813 14.9349 228.501 15.0041C227.297 15.0678 230.467 15.7724 234.61 13.9599C235.609 13.5229 235.445 14.5864 236.556 16.249C237.101 17.0659 237.892 17.368 237.365 16.5859C236.08 14.6793 236.457 13.8355 237.357 12.9534C239.101 11.2433 240.546 13.3938 241.083 11.9596C241.672 10.3866 242.9 9.33702 243.614 9.0832C247.057 7.85922 250.073 8.20364 252.145 14.5419C253.663 19.1865 253.023 20.6229 251.024 18.7318C249.062 16.8763 247.704 15.2889 246.564 15.9639C245.424 16.6391 249.926 18.3897 251.785 21.9272C253.644 25.4649 256.15 26.2648 255.682 23.4107Z" fill="#C61F10"/>
<path fill-rule="evenodd" clip-rule="evenodd" d="M243.252 20.6507C241.424 21.8029 238.401 22.4434 235.677 21.4603C232.952 20.4772 230.938 23.3357 233.641 23.37C236.343 23.4042 237.737 22.6416 238.133 23.9709C238.529 25.3004 240.041 23.8657 240.991 24.9143C241.94 25.9631 242.797 23.5943 243.502 24.6001C244.208 25.606 245.835 23.8763 246.356 24.8498C246.878 25.8236 248.016 25.0788 248.35 24.2558C248.684 23.4324 244.477 19.8782 243.252 20.6507Z" fill="#C61F10"/>
<defs>
<filter id="filter0_i_583_1259" x="140.398" y="55.3027" width="59.5078" height="60.6774" filterUnits="userSpaceOnUse" color-interpolation-filters="sRGB">
<feFlood flood-opacity="0" result="BackgroundImageFix"/>
<feBlend mode="normal" in="SourceGraphic" in2="BackgroundImageFix" result="shape"/>
<feColorMatrix in="SourceAlpha" type="matrix" values="0 0 0 0 0 0 0 0 0 0 0 0 0 0 0 0 0 0 127 0" result="hardAlpha"/>
<feOffset dy="11.8428"/>
<feGaussianBlur stdDeviation="0.59214"/>
<feComposite in2="hardAlpha" operator="arithmetic" k2="-1" k3="1"/>
<feColorMatrix type="matrix" values="0 0 0 0 0 0 0 0 0 0 0 0 0 0 0 0 0 0 0.15 0"/>
<feBlend mode="normal" in2="shape" result="effect1_innerShadow_583_1259"/>
</filter>
<linearGradient id="paint0_linear_583_1259" x1="129.437" y1="95.6489" x2="196.329" y2="53.0642" gradientUnits="userSpaceOnUse">
<stop stop-color="#FAA706"/>
<stop offset="0.81865" stop-color="#FF6700"/>
</linearGradient>
</defs>
</svg>
