<svg width="1645" height="700" viewBox="0 0 1645 700" fill="none" xmlns="http://www.w3.org/2000/svg">
<g clip-path="url(#clip0_552_6823)">
<path d="M1134.5 0.80957H1056.81C1050.73 0.80957 1045.81 5.73826 1045.81 11.8181V89.566C1045.81 95.6459 1050.73 100.575 1056.81 100.575H1134.5C1140.57 100.575 1145.5 95.6459 1145.5 89.566V11.8181C1145.5 5.73826 1140.57 0.80957 1134.5 0.80957Z" stroke="url(#paint0_linear_552_6823)" stroke-opacity="0.04" stroke-width="1.27532"/>
<path d="M1234.19 0.80957H1156.5C1150.42 0.80957 1145.5 5.73826 1145.5 11.8181V89.566C1145.5 95.6459 1150.42 100.575 1156.5 100.575H1234.19C1240.26 100.575 1245.19 95.6459 1245.19 89.566V11.8181C1245.19 5.73826 1240.26 0.80957 1234.19 0.80957Z" stroke="url(#paint1_linear_552_6823)" stroke-opacity="0.04" stroke-width="1.27532"/>
<path d="M1333.87 0.80957H1256.18C1250.11 0.80957 1245.18 5.73826 1245.18 11.8181V89.566C1245.18 95.6459 1250.11 100.575 1256.18 100.575H1333.87C1339.95 100.575 1344.87 95.6459 1344.87 89.566V11.8181C1344.87 5.73826 1339.95 0.80957 1333.87 0.80957Z" stroke="url(#paint2_linear_552_6823)" stroke-opacity="0.04" stroke-width="1.27532"/>
<path d="M1433.56 0.80957H1355.87C1349.8 0.80957 1344.87 5.73826 1344.87 11.8181V89.566C1344.87 95.6459 1349.8 100.575 1355.87 100.575H1433.56C1439.64 100.575 1444.56 95.6459 1444.56 89.566V11.8181C1444.56 5.73826 1439.64 0.80957 1433.56 0.80957Z" stroke="url(#paint3_linear_552_6823)" stroke-opacity="0.04" stroke-width="1.27532"/>
<path d="M1533.25 0.80957H1455.56C1449.49 0.80957 1444.56 5.73826 1444.56 11.8181V89.566C1444.56 95.6459 1449.49 100.575 1455.56 100.575H1533.25C1539.32 100.575 1544.25 95.6459 1544.25 89.566V11.8181C1544.25 5.73826 1539.32 0.80957 1533.25 0.80957Z" stroke="url(#paint4_linear_552_6823)" stroke-opacity="0.04" stroke-width="1.27532"/>
<path d="M1632.94 0.80957H1555.25C1549.17 0.80957 1544.25 5.73826 1544.25 11.8181V89.566C1544.25 95.6459 1549.17 100.575 1555.25 100.575H1632.94C1639.01 100.575 1643.94 95.6459 1643.94 89.566V11.8181C1643.94 5.73826 1639.01 0.80957 1632.94 0.80957Z" stroke="url(#paint5_linear_552_6823)" stroke-opacity="0.04" stroke-width="1.27532"/>
<path d="M1134.5 100.574H1056.81C1050.73 100.574 1045.81 105.503 1045.81 111.583V189.331C1045.81 195.411 1050.73 200.339 1056.81 200.339H1134.5C1140.57 200.339 1145.5 195.411 1145.5 189.331V111.583C1145.5 105.503 1140.57 100.574 1134.5 100.574Z" stroke="url(#paint6_linear_552_6823)" stroke-opacity="0.04" stroke-width="1.27532"/>
<path d="M1234.19 100.574H1156.5C1150.42 100.574 1145.5 105.503 1145.5 111.583V189.331C1145.5 195.411 1150.42 200.339 1156.5 200.339H1234.19C1240.26 200.339 1245.19 195.411 1245.19 189.331V111.583C1245.19 105.503 1240.26 100.574 1234.19 100.574Z" stroke="url(#paint7_linear_552_6823)" stroke-opacity="0.04" stroke-width="1.27532"/>
<path d="M1333.87 100.574H1256.18C1250.11 100.574 1245.18 105.503 1245.18 111.583V189.331C1245.18 195.411 1250.11 200.339 1256.18 200.339H1333.87C1339.95 200.339 1344.87 195.411 1344.87 189.331V111.583C1344.87 105.503 1339.95 100.574 1333.87 100.574Z" stroke="url(#paint8_linear_552_6823)" stroke-opacity="0.04" stroke-width="1.27532"/>
<path d="M1433.56 100.574H1355.87C1349.8 100.574 1344.87 105.503 1344.87 111.583V189.331C1344.87 195.411 1349.8 200.339 1355.87 200.339H1433.56C1439.64 200.339 1444.56 195.411 1444.56 189.331V111.583C1444.56 105.503 1439.64 100.574 1433.56 100.574Z" stroke="url(#paint9_linear_552_6823)" stroke-opacity="0.04" stroke-width="1.27532"/>
<path d="M1533.25 100.574H1455.56C1449.49 100.574 1444.56 105.503 1444.56 111.583V189.331C1444.56 195.411 1449.49 200.339 1455.56 200.339H1533.25C1539.32 200.339 1544.25 195.411 1544.25 189.331V111.583C1544.25 105.503 1539.32 100.574 1533.25 100.574Z" stroke="url(#paint10_linear_552_6823)" stroke-opacity="0.04" stroke-width="1.27532"/>
<path d="M1632.94 100.574H1555.25C1549.17 100.574 1544.25 105.503 1544.25 111.583V189.331C1544.25 195.411 1549.17 200.339 1555.25 200.339H1632.94C1639.01 200.339 1643.94 195.411 1643.94 189.331V111.583C1643.94 105.503 1639.01 100.574 1632.94 100.574Z" stroke="url(#paint11_linear_552_6823)" stroke-opacity="0.04" stroke-width="1.27532"/>
<path d="M1134.5 200.339H1056.81C1050.73 200.339 1045.81 205.268 1045.81 211.347V289.095C1045.81 295.175 1050.73 300.104 1056.81 300.104H1134.5C1140.57 300.104 1145.5 295.175 1145.5 289.095V211.347C1145.5 205.268 1140.57 200.339 1134.5 200.339Z" stroke="url(#paint12_linear_552_6823)" stroke-opacity="0.04" stroke-width="1.27532"/>
<path d="M1234.19 200.339H1156.5C1150.42 200.339 1145.5 205.268 1145.5 211.347V289.095C1145.5 295.175 1150.42 300.104 1156.5 300.104H1234.19C1240.26 300.104 1245.19 295.175 1245.19 289.095V211.347C1245.19 205.268 1240.26 200.339 1234.19 200.339Z" stroke="url(#paint13_linear_552_6823)" stroke-opacity="0.04" stroke-width="1.27532"/>
<path d="M1333.87 200.339H1256.18C1250.11 200.339 1245.18 205.268 1245.18 211.347V289.095C1245.18 295.175 1250.11 300.104 1256.18 300.104H1333.87C1339.95 300.104 1344.87 295.175 1344.87 289.095V211.347C1344.87 205.268 1339.95 200.339 1333.87 200.339Z" stroke="url(#paint14_linear_552_6823)" stroke-opacity="0.04" stroke-width="1.27532"/>
<path d="M1433.56 200.339H1355.87C1349.8 200.339 1344.87 205.268 1344.87 211.347V289.095C1344.87 295.175 1349.8 300.104 1355.87 300.104H1433.56C1439.64 300.104 1444.56 295.175 1444.56 289.095V211.347C1444.56 205.268 1439.64 200.339 1433.56 200.339Z" stroke="url(#paint15_linear_552_6823)" stroke-opacity="0.04" stroke-width="1.27532"/>
<path d="M1533.25 200.339H1455.56C1449.49 200.339 1444.56 205.268 1444.56 211.347V289.095C1444.56 295.175 1449.49 300.104 1455.56 300.104H1533.25C1539.32 300.104 1544.25 295.175 1544.25 289.095V211.347C1544.25 205.268 1539.32 200.339 1533.25 200.339Z" stroke="url(#paint16_linear_552_6823)" stroke-opacity="0.04" stroke-width="1.27532"/>
<path d="M1632.94 200.339H1555.25C1549.17 200.339 1544.25 205.268 1544.25 211.347V289.095C1544.25 295.175 1549.17 300.104 1555.25 300.104H1632.94C1639.01 300.104 1643.94 295.175 1643.94 289.095V211.347C1643.94 205.268 1639.01 200.339 1632.94 200.339Z" stroke="url(#paint17_linear_552_6823)" stroke-opacity="0.04" stroke-width="1.27532"/>
<path d="M1134.5 300.105H1056.81C1050.73 300.105 1045.81 305.034 1045.81 311.114V388.862C1045.81 394.942 1050.73 399.87 1056.81 399.87H1134.5C1140.57 399.87 1145.5 394.942 1145.5 388.862V311.114C1145.5 305.034 1140.57 300.105 1134.5 300.105Z" stroke="url(#paint18_linear_552_6823)" stroke-opacity="0.04" stroke-width="1.27532"/>
<path d="M1234.19 300.105H1156.5C1150.42 300.105 1145.5 305.034 1145.5 311.114V388.862C1145.5 394.942 1150.42 399.87 1156.5 399.87H1234.19C1240.26 399.87 1245.19 394.942 1245.19 388.862V311.114C1245.19 305.034 1240.26 300.105 1234.19 300.105Z" stroke="url(#paint19_linear_552_6823)" stroke-opacity="0.04" stroke-width="1.27532"/>
<path d="M1333.87 300.105H1256.18C1250.11 300.105 1245.18 305.034 1245.18 311.114V388.862C1245.18 394.942 1250.11 399.87 1256.18 399.87H1333.87C1339.95 399.87 1344.87 394.942 1344.87 388.862V311.114C1344.87 305.034 1339.95 300.105 1333.87 300.105Z" stroke="url(#paint20_linear_552_6823)" stroke-opacity="0.04" stroke-width="1.27532"/>
<path d="M1433.56 300.105H1355.87C1349.8 300.105 1344.87 305.034 1344.87 311.114V388.862C1344.87 394.942 1349.8 399.87 1355.87 399.87H1433.56C1439.64 399.87 1444.56 394.942 1444.56 388.862V311.114C1444.56 305.034 1439.64 300.105 1433.56 300.105Z" stroke="url(#paint21_linear_552_6823)" stroke-opacity="0.04" stroke-width="1.27532"/>
<path d="M1533.25 300.105H1455.56C1449.49 300.105 1444.56 305.034 1444.56 311.114V388.862C1444.56 394.942 1449.49 399.87 1455.56 399.87H1533.25C1539.32 399.87 1544.25 394.942 1544.25 388.862V311.114C1544.25 305.034 1539.32 300.105 1533.25 300.105Z" stroke="url(#paint22_linear_552_6823)" stroke-opacity="0.04" stroke-width="1.27532"/>
<path d="M1632.94 300.105H1555.25C1549.17 300.105 1544.25 305.034 1544.25 311.114V388.862C1544.25 394.942 1549.17 399.87 1555.25 399.87H1632.94C1639.01 399.87 1643.94 394.942 1643.94 388.862V311.114C1643.94 305.034 1639.01 300.105 1632.94 300.105Z" stroke="url(#paint23_linear_552_6823)" stroke-opacity="0.04" stroke-width="1.27532"/>
<path d="M1134.5 399.87H1056.81C1050.73 399.87 1045.81 404.799 1045.81 410.879V488.627C1045.81 494.706 1050.73 499.635 1056.81 499.635H1134.5C1140.57 499.635 1145.5 494.706 1145.5 488.627V410.879C1145.5 404.799 1140.57 399.87 1134.5 399.87Z" stroke="url(#paint24_linear_552_6823)" stroke-opacity="0.04" stroke-width="1.27532"/>
<path d="M1234.19 399.87H1156.5C1150.42 399.87 1145.5 404.799 1145.5 410.879V488.627C1145.5 494.706 1150.42 499.635 1156.5 499.635H1234.19C1240.26 499.635 1245.19 494.706 1245.19 488.627V410.879C1245.19 404.799 1240.26 399.87 1234.19 399.87Z" stroke="url(#paint25_linear_552_6823)" stroke-opacity="0.04" stroke-width="1.27532"/>
<path d="M1333.87 399.87H1256.18C1250.11 399.87 1245.18 404.799 1245.18 410.879V488.627C1245.18 494.706 1250.11 499.635 1256.18 499.635H1333.87C1339.95 499.635 1344.87 494.706 1344.87 488.627V410.879C1344.87 404.799 1339.95 399.87 1333.87 399.87Z" stroke="url(#paint26_linear_552_6823)" stroke-opacity="0.04" stroke-width="1.27532"/>
<path d="M1433.56 399.87H1355.87C1349.8 399.87 1344.87 404.799 1344.87 410.879V488.627C1344.87 494.706 1349.8 499.635 1355.87 499.635H1433.56C1439.64 499.635 1444.56 494.706 1444.56 488.627V410.879C1444.56 404.799 1439.64 399.87 1433.56 399.87Z" stroke="url(#paint27_linear_552_6823)" stroke-opacity="0.04" stroke-width="1.27532"/>
<path d="M1533.25 399.87H1455.56C1449.49 399.87 1444.56 404.799 1444.56 410.879V488.627C1444.56 494.706 1449.49 499.635 1455.56 499.635H1533.25C1539.32 499.635 1544.25 494.706 1544.25 488.627V410.879C1544.25 404.799 1539.32 399.87 1533.25 399.87Z" stroke="url(#paint28_linear_552_6823)" stroke-opacity="0.04" stroke-width="1.27532"/>
<path d="M1632.94 399.87H1555.25C1549.17 399.87 1544.25 404.799 1544.25 410.879V488.627C1544.25 494.706 1549.17 499.635 1555.25 499.635H1632.94C1639.01 499.635 1643.94 494.706 1643.94 488.627V410.879C1643.94 404.799 1639.01 399.87 1632.94 399.87Z" stroke="url(#paint29_linear_552_6823)" stroke-opacity="0.04" stroke-width="1.27532"/>
<path d="M1134.5 499.634H1056.81C1050.73 499.634 1045.81 504.562 1045.81 510.642V588.39C1045.81 594.47 1050.73 599.399 1056.81 599.399H1134.5C1140.57 599.399 1145.5 594.47 1145.5 588.39V510.642C1145.5 504.562 1140.57 499.634 1134.5 499.634Z" stroke="url(#paint30_linear_552_6823)" stroke-opacity="0.04" stroke-width="1.27532"/>
<path d="M1234.19 499.634H1156.5C1150.42 499.634 1145.5 504.562 1145.5 510.642V588.39C1145.5 594.47 1150.42 599.399 1156.5 599.399H1234.19C1240.26 599.399 1245.19 594.47 1245.19 588.39V510.642C1245.19 504.562 1240.26 499.634 1234.19 499.634Z" stroke="url(#paint31_linear_552_6823)" stroke-opacity="0.04" stroke-width="1.27532"/>
<path d="M1333.87 499.634H1256.18C1250.11 499.634 1245.18 504.562 1245.18 510.642V588.39C1245.18 594.47 1250.11 599.399 1256.18 599.399H1333.87C1339.95 599.399 1344.87 594.47 1344.87 588.39V510.642C1344.87 504.562 1339.95 499.634 1333.87 499.634Z" stroke="url(#paint32_linear_552_6823)" stroke-opacity="0.04" stroke-width="1.27532"/>
<path d="M1433.56 499.634H1355.87C1349.8 499.634 1344.87 504.562 1344.87 510.642V588.39C1344.87 594.47 1349.8 599.399 1355.87 599.399H1433.56C1439.64 599.399 1444.56 594.47 1444.56 588.39V510.642C1444.56 504.562 1439.64 499.634 1433.56 499.634Z" stroke="url(#paint33_linear_552_6823)" stroke-opacity="0.04" stroke-width="1.27532"/>
<path d="M1533.25 499.634H1455.56C1449.49 499.634 1444.56 504.562 1444.56 510.642V588.39C1444.56 594.47 1449.49 599.399 1455.56 599.399H1533.25C1539.32 599.399 1544.25 594.47 1544.25 588.39V510.642C1544.25 504.562 1539.32 499.634 1533.25 499.634Z" stroke="url(#paint34_linear_552_6823)" stroke-opacity="0.04" stroke-width="1.27532"/>
<path d="M1632.94 499.634H1555.25C1549.17 499.634 1544.25 504.562 1544.25 510.642V588.39C1544.25 594.47 1549.17 599.399 1555.25 599.399H1632.94C1639.01 599.399 1643.94 594.47 1643.94 588.39V510.642C1643.94 504.562 1639.01 499.634 1632.94 499.634Z" stroke="url(#paint35_linear_552_6823)" stroke-opacity="0.04" stroke-width="1.27532"/>
<path d="M1134.5 599.4H1056.81C1050.73 599.4 1045.81 604.329 1045.81 610.409V688.157C1045.81 694.237 1050.73 699.165 1056.81 699.165H1134.5C1140.57 699.165 1145.5 694.237 1145.5 688.157V610.409C1145.5 604.329 1140.57 599.4 1134.5 599.4Z" stroke="url(#paint36_linear_552_6823)" stroke-opacity="0.04" stroke-width="1.27532"/>
<path d="M1234.19 599.4H1156.5C1150.42 599.4 1145.5 604.329 1145.5 610.409V688.157C1145.5 694.237 1150.42 699.165 1156.5 699.165H1234.19C1240.26 699.165 1245.19 694.237 1245.19 688.157V610.409C1245.19 604.329 1240.26 599.4 1234.19 599.4Z" stroke="url(#paint37_linear_552_6823)" stroke-opacity="0.04" stroke-width="1.27532"/>
<path d="M1333.87 599.4H1256.18C1250.11 599.4 1245.18 604.329 1245.18 610.409V688.157C1245.18 694.237 1250.11 699.165 1256.18 699.165H1333.87C1339.95 699.165 1344.87 694.237 1344.87 688.157V610.409C1344.87 604.329 1339.95 599.4 1333.87 599.4Z" stroke="url(#paint38_linear_552_6823)" stroke-opacity="0.04" stroke-width="1.27532"/>
<path d="M1433.56 599.4H1355.87C1349.8 599.4 1344.87 604.329 1344.87 610.409V688.157C1344.87 694.237 1349.8 699.165 1355.87 699.165H1433.56C1439.64 699.165 1444.56 694.237 1444.56 688.157V610.409C1444.56 604.329 1439.64 599.4 1433.56 599.4Z" stroke="url(#paint39_linear_552_6823)" stroke-opacity="0.04" stroke-width="1.27532"/>
<path d="M1533.25 599.4H1455.56C1449.49 599.4 1444.56 604.329 1444.56 610.409V688.157C1444.56 694.237 1449.49 699.165 1455.56 699.165H1533.25C1539.32 699.165 1544.25 694.237 1544.25 688.157V610.409C1544.25 604.329 1539.32 599.4 1533.25 599.4Z" stroke="url(#paint40_linear_552_6823)" stroke-opacity="0.04" stroke-width="1.27532"/>
<path d="M1632.94 599.4H1555.25C1549.17 599.4 1544.25 604.329 1544.25 610.409V688.157C1544.25 694.237 1549.17 699.165 1555.25 699.165H1632.94C1639.01 699.165 1643.94 694.237 1643.94 688.157V610.409C1643.94 604.329 1639.01 599.4 1632.94 599.4Z" stroke="url(#paint41_linear_552_6823)" stroke-opacity="0.04" stroke-width="1.27532"/>
<path d="M1244.83 8.4834V88.9839C1244.83 95.0638 1249.76 99.9921 1255.83 99.9921H1333.52C1339.6 99.9921 1344.52 104.921 1344.52 111.001V188.749C1344.52 194.829 1349.45 199.757 1355.52 199.757H1433.21C1439.28 199.757 1444.21 204.686 1444.21 210.766V288.514C1444.21 294.594 1449.13 299.523 1455.21 299.523H1532.9C1538.97 299.523 1543.9 304.451 1543.9 310.531V388.279C1543.9 394.359 1548.82 399.288 1554.9 399.288H1635.33M1145.14 8.4834V88.9839C1145.14 95.0638 1150.07 99.9921 1156.14 99.9921H1233.83C1239.91 99.9921 1244.83 104.921 1244.83 111.001V188.749C1244.83 194.829 1249.76 199.757 1255.83 199.757H1333.52C1339.6 199.757 1344.52 204.686 1344.52 210.766V288.514C1344.52 294.594 1339.6 299.523 1333.52 299.523H1255.83C1249.76 299.523 1244.83 294.594 1244.83 288.514V209.39L1244.74 208.74C1244 203.753 1239.77 200.031 1234.73 199.933L1225.58 199.757H1156.14C1150.07 199.757 1145.14 204.686 1145.14 210.766V288.514C1145.14 294.594 1150.07 299.523 1156.14 299.523H1234.52L1237.13 299.697C1241.46 299.986 1244.83 303.589 1244.83 307.935V316.379M1244.83 307.779V388.279C1244.83 394.359 1249.76 399.288 1255.83 399.288H1333.52C1339.6 399.288 1344.52 404.216 1344.52 410.296V488.045C1344.52 494.124 1349.45 499.053 1355.52 499.053H1433.21C1439.28 499.053 1444.21 503.982 1444.21 510.061V587.81C1444.21 593.889 1449.13 598.818 1455.21 598.818H1532.9C1538.97 598.818 1543.9 603.747 1543.9 609.827V687.575C1543.9 693.654 1548.82 698.584 1554.9 698.584H1635.33" stroke="url(#paint42_linear_552_6823)" stroke-opacity="0.5" stroke-width="1.27532"/>
</g>
<g clip-path="url(#clip1_552_6823)">
<path d="M510.503 0.80957H588.191C594.267 0.80957 599.191 5.73826 599.191 11.8181V89.566C599.191 95.6459 594.267 100.575 588.191 100.575H510.503C504.428 100.575 499.503 95.6459 499.503 89.566V11.8181C499.503 5.73826 504.428 0.80957 510.503 0.80957Z" stroke="url(#paint43_linear_552_6823)" stroke-opacity="0.04" stroke-width="1.27532"/>
<path d="M410.815 0.80957H488.503C494.579 0.80957 499.503 5.73826 499.503 11.8181V89.566C499.503 95.6459 494.579 100.575 488.503 100.575H410.815C404.74 100.575 399.815 95.6459 399.815 89.566V11.8181C399.815 5.73826 404.74 0.80957 410.815 0.80957Z" stroke="url(#paint44_linear_552_6823)" stroke-opacity="0.04" stroke-width="1.27532"/>
<path d="M311.127 0.80957H388.815C394.89 0.80957 399.815 5.73826 399.815 11.8181V89.566C399.815 95.6459 394.89 100.575 388.815 100.575H311.127C305.052 100.575 300.127 95.6459 300.127 89.566V11.8181C300.127 5.73826 305.052 0.80957 311.127 0.80957Z" stroke="url(#paint45_linear_552_6823)" stroke-opacity="0.04" stroke-width="1.27532"/>
<path d="M211.438 0.80957H289.126C295.201 0.80957 300.126 5.73826 300.126 11.8181V89.566C300.126 95.6459 295.201 100.575 289.126 100.575H211.438C205.363 100.575 200.438 95.6459 200.438 89.566V11.8181C200.438 5.73826 205.363 0.80957 211.438 0.80957Z" stroke="url(#paint46_linear_552_6823)" stroke-opacity="0.04" stroke-width="1.27532"/>
<path d="M111.75 0.80957H189.438C195.513 0.80957 200.438 5.73826 200.438 11.8181V89.566C200.438 95.6459 195.513 100.575 189.438 100.575H111.75C105.675 100.575 100.75 95.6459 100.75 89.566V11.8181C100.75 5.73826 105.675 0.80957 111.75 0.80957Z" stroke="url(#paint47_linear_552_6823)" stroke-opacity="0.04" stroke-width="1.27532"/>
<path d="M12.0619 0.80957H89.75C95.8251 0.80957 100.75 5.73826 100.75 11.8181V89.566C100.75 95.6459 95.8251 100.575 89.75 100.575H12.0619C5.98674 100.575 1.06185 95.6459 1.06185 89.566V11.8181C1.06185 5.73826 5.98674 0.80957 12.0619 0.80957Z" stroke="url(#paint48_linear_552_6823)" stroke-opacity="0.04" stroke-width="1.27532"/>
<path d="M510.503 100.574H588.191C594.267 100.574 599.191 105.503 599.191 111.583V189.331C599.191 195.411 594.267 200.339 588.191 200.339H510.503C504.428 200.339 499.503 195.411 499.503 189.331V111.583C499.503 105.503 504.428 100.574 510.503 100.574Z" stroke="url(#paint49_linear_552_6823)" stroke-opacity="0.04" stroke-width="1.27532"/>
<path d="M410.815 100.574H488.503C494.579 100.574 499.503 105.503 499.503 111.583V189.331C499.503 195.411 494.579 200.339 488.503 200.339H410.815C404.74 200.339 399.815 195.411 399.815 189.331V111.583C399.815 105.503 404.74 100.574 410.815 100.574Z" stroke="url(#paint50_linear_552_6823)" stroke-opacity="0.04" stroke-width="1.27532"/>
<path d="M311.127 100.574H388.815C394.89 100.574 399.815 105.503 399.815 111.583V189.331C399.815 195.411 394.89 200.339 388.815 200.339H311.127C305.052 200.339 300.127 195.411 300.127 189.331V111.583C300.127 105.503 305.052 100.574 311.127 100.574Z" stroke="url(#paint51_linear_552_6823)" stroke-opacity="0.04" stroke-width="1.27532"/>
<path d="M211.438 100.574H289.126C295.201 100.574 300.126 105.503 300.126 111.583V189.331C300.126 195.411 295.201 200.339 289.126 200.339H211.438C205.363 200.339 200.438 195.411 200.438 189.331V111.583C200.438 105.503 205.363 100.574 211.438 100.574Z" stroke="url(#paint52_linear_552_6823)" stroke-opacity="0.04" stroke-width="1.27532"/>
<path d="M111.75 100.574H189.438C195.513 100.574 200.438 105.503 200.438 111.583V189.331C200.438 195.411 195.513 200.339 189.438 200.339H111.75C105.675 200.339 100.75 195.411 100.75 189.331V111.583C100.75 105.503 105.675 100.574 111.75 100.574Z" stroke="url(#paint53_linear_552_6823)" stroke-opacity="0.04" stroke-width="1.27532"/>
<path d="M12.0619 100.574H89.75C95.8251 100.574 100.75 105.503 100.75 111.583V189.331C100.75 195.411 95.8251 200.339 89.75 200.339H12.0619C5.98674 200.339 1.06185 195.411 1.06185 189.331V111.583C1.06185 105.503 5.98674 100.574 12.0619 100.574Z" stroke="url(#paint54_linear_552_6823)" stroke-opacity="0.04" stroke-width="1.27532"/>
<path d="M510.503 200.339H588.191C594.267 200.339 599.191 205.268 599.191 211.347V289.095C599.191 295.175 594.267 300.104 588.191 300.104H510.503C504.428 300.104 499.503 295.175 499.503 289.095V211.347C499.503 205.268 504.428 200.339 510.503 200.339Z" stroke="url(#paint55_linear_552_6823)" stroke-opacity="0.04" stroke-width="1.27532"/>
<path d="M410.815 200.339H488.503C494.579 200.339 499.503 205.268 499.503 211.347V289.095C499.503 295.175 494.579 300.104 488.503 300.104H410.815C404.74 300.104 399.815 295.175 399.815 289.095V211.347C399.815 205.268 404.74 200.339 410.815 200.339Z" stroke="url(#paint56_linear_552_6823)" stroke-opacity="0.04" stroke-width="1.27532"/>
<path d="M311.127 200.339H388.815C394.89 200.339 399.815 205.268 399.815 211.347V289.095C399.815 295.175 394.89 300.104 388.815 300.104H311.127C305.052 300.104 300.127 295.175 300.127 289.095V211.347C300.127 205.268 305.052 200.339 311.127 200.339Z" stroke="url(#paint57_linear_552_6823)" stroke-opacity="0.04" stroke-width="1.27532"/>
<path d="M211.438 200.339H289.126C295.201 200.339 300.126 205.268 300.126 211.347V289.095C300.126 295.175 295.201 300.104 289.126 300.104H211.438C205.363 300.104 200.438 295.175 200.438 289.095V211.347C200.438 205.268 205.363 200.339 211.438 200.339Z" stroke="url(#paint58_linear_552_6823)" stroke-opacity="0.04" stroke-width="1.27532"/>
<path d="M111.75 200.339H189.438C195.513 200.339 200.438 205.268 200.438 211.347V289.095C200.438 295.175 195.513 300.104 189.438 300.104H111.75C105.675 300.104 100.75 295.175 100.75 289.095V211.347C100.75 205.268 105.675 200.339 111.75 200.339Z" stroke="url(#paint59_linear_552_6823)" stroke-opacity="0.04" stroke-width="1.27532"/>
<path d="M12.0619 200.339H89.75C95.8251 200.339 100.75 205.268 100.75 211.347V289.095C100.75 295.175 95.8251 300.104 89.75 300.104H12.0619C5.98674 300.104 1.06185 295.175 1.06185 289.095V211.347C1.06185 205.268 5.98674 200.339 12.0619 200.339Z" stroke="url(#paint60_linear_552_6823)" stroke-opacity="0.04" stroke-width="1.27532"/>
<path d="M510.503 300.105H588.191C594.267 300.105 599.191 305.034 599.191 311.114V388.862C599.191 394.942 594.267 399.87 588.191 399.87H510.503C504.428 399.87 499.503 394.942 499.503 388.862V311.114C499.503 305.034 504.428 300.105 510.503 300.105Z" stroke="url(#paint61_linear_552_6823)" stroke-opacity="0.04" stroke-width="1.27532"/>
<path d="M410.815 300.105H488.503C494.579 300.105 499.503 305.034 499.503 311.114V388.862C499.503 394.942 494.579 399.87 488.503 399.87H410.815C404.74 399.87 399.815 394.942 399.815 388.862V311.114C399.815 305.034 404.74 300.105 410.815 300.105Z" stroke="url(#paint62_linear_552_6823)" stroke-opacity="0.04" stroke-width="1.27532"/>
<path d="M311.127 300.105H388.815C394.89 300.105 399.815 305.034 399.815 311.114V388.862C399.815 394.942 394.89 399.87 388.815 399.87H311.127C305.052 399.87 300.127 394.942 300.127 388.862V311.114C300.127 305.034 305.052 300.105 311.127 300.105Z" stroke="url(#paint63_linear_552_6823)" stroke-opacity="0.04" stroke-width="1.27532"/>
<path d="M211.438 300.105H289.126C295.201 300.105 300.126 305.034 300.126 311.114V388.862C300.126 394.942 295.201 399.87 289.126 399.87H211.438C205.363 399.87 200.438 394.942 200.438 388.862V311.114C200.438 305.034 205.363 300.105 211.438 300.105Z" stroke="url(#paint64_linear_552_6823)" stroke-opacity="0.04" stroke-width="1.27532"/>
<path d="M111.75 300.105H189.438C195.513 300.105 200.438 305.034 200.438 311.114V388.862C200.438 394.942 195.513 399.87 189.438 399.87H111.75C105.675 399.87 100.75 394.942 100.75 388.862V311.114C100.75 305.034 105.675 300.105 111.75 300.105Z" stroke="url(#paint65_linear_552_6823)" stroke-opacity="0.04" stroke-width="1.27532"/>
<path d="M12.0619 300.105H89.75C95.8251 300.105 100.75 305.034 100.75 311.114V388.862C100.75 394.942 95.8251 399.87 89.75 399.87H12.0619C5.98674 399.87 1.06185 394.942 1.06185 388.862V311.114C1.06185 305.034 5.98674 300.105 12.0619 300.105Z" stroke="url(#paint66_linear_552_6823)" stroke-opacity="0.04" stroke-width="1.27532"/>
<path d="M510.503 399.87H588.191C594.267 399.87 599.191 404.799 599.191 410.879V488.627C599.191 494.706 594.267 499.635 588.191 499.635H510.503C504.428 499.635 499.503 494.706 499.503 488.627V410.879C499.503 404.799 504.428 399.87 510.503 399.87Z" stroke="url(#paint67_linear_552_6823)" stroke-opacity="0.04" stroke-width="1.27532"/>
<path d="M410.815 399.87H488.503C494.579 399.87 499.503 404.799 499.503 410.879V488.627C499.503 494.706 494.579 499.635 488.503 499.635H410.815C404.74 499.635 399.815 494.706 399.815 488.627V410.879C399.815 404.799 404.74 399.87 410.815 399.87Z" stroke="url(#paint68_linear_552_6823)" stroke-opacity="0.04" stroke-width="1.27532"/>
<path d="M311.127 399.87H388.815C394.89 399.87 399.815 404.799 399.815 410.879V488.627C399.815 494.706 394.89 499.635 388.815 499.635H311.127C305.052 499.635 300.127 494.706 300.127 488.627V410.879C300.127 404.799 305.052 399.87 311.127 399.87Z" stroke="url(#paint69_linear_552_6823)" stroke-opacity="0.04" stroke-width="1.27532"/>
<path d="M211.438 399.87H289.126C295.201 399.87 300.126 404.799 300.126 410.879V488.627C300.126 494.706 295.201 499.635 289.126 499.635H211.438C205.363 499.635 200.438 494.706 200.438 488.627V410.879C200.438 404.799 205.363 399.87 211.438 399.87Z" stroke="url(#paint70_linear_552_6823)" stroke-opacity="0.04" stroke-width="1.27532"/>
<path d="M111.75 399.87H189.438C195.513 399.87 200.438 404.799 200.438 410.879V488.627C200.438 494.706 195.513 499.635 189.438 499.635H111.75C105.675 499.635 100.75 494.706 100.75 488.627V410.879C100.75 404.799 105.675 399.87 111.75 399.87Z" stroke="url(#paint71_linear_552_6823)" stroke-opacity="0.04" stroke-width="1.27532"/>
<path d="M12.0619 399.87H89.75C95.8251 399.87 100.75 404.799 100.75 410.879V488.627C100.75 494.706 95.8251 499.635 89.75 499.635H12.0619C5.98674 499.635 1.06185 494.706 1.06185 488.627V410.879C1.06185 404.799 5.98674 399.87 12.0619 399.87Z" stroke="url(#paint72_linear_552_6823)" stroke-opacity="0.04" stroke-width="1.27532"/>
<path d="M510.503 499.634H588.191C594.267 499.634 599.191 504.562 599.191 510.642V588.39C599.191 594.47 594.267 599.399 588.191 599.399H510.503C504.428 599.399 499.503 594.47 499.503 588.39V510.642C499.503 504.562 504.428 499.634 510.503 499.634Z" stroke="url(#paint73_linear_552_6823)" stroke-opacity="0.04" stroke-width="1.27532"/>
<path d="M410.815 499.634H488.503C494.579 499.634 499.503 504.562 499.503 510.642V588.39C499.503 594.47 494.579 599.399 488.503 599.399H410.815C404.74 599.399 399.815 594.47 399.815 588.39V510.642C399.815 504.562 404.74 499.634 410.815 499.634Z" stroke="url(#paint74_linear_552_6823)" stroke-opacity="0.04" stroke-width="1.27532"/>
<path d="M311.127 499.634H388.815C394.89 499.634 399.815 504.562 399.815 510.642V588.39C399.815 594.47 394.89 599.399 388.815 599.399H311.127C305.052 599.399 300.127 594.47 300.127 588.39V510.642C300.127 504.562 305.052 499.634 311.127 499.634Z" stroke="url(#paint75_linear_552_6823)" stroke-opacity="0.04" stroke-width="1.27532"/>
<path d="M211.438 499.634H289.126C295.201 499.634 300.126 504.562 300.126 510.642V588.39C300.126 594.47 295.201 599.399 289.126 599.399H211.438C205.363 599.399 200.438 594.47 200.438 588.39V510.642C200.438 504.562 205.363 499.634 211.438 499.634Z" stroke="url(#paint76_linear_552_6823)" stroke-opacity="0.04" stroke-width="1.27532"/>
<path d="M111.75 499.634H189.438C195.513 499.634 200.438 504.562 200.438 510.642V588.39C200.438 594.47 195.513 599.399 189.438 599.399H111.75C105.675 599.399 100.75 594.47 100.75 588.39V510.642C100.75 504.562 105.675 499.634 111.75 499.634Z" stroke="url(#paint77_linear_552_6823)" stroke-opacity="0.04" stroke-width="1.27532"/>
<path d="M12.0619 499.634H89.75C95.8251 499.634 100.75 504.562 100.75 510.642V588.39C100.75 594.47 95.8251 599.399 89.75 599.399H12.0619C5.98674 599.399 1.06185 594.47 1.06185 588.39V510.642C1.06185 504.562 5.98674 499.634 12.0619 499.634Z" stroke="url(#paint78_linear_552_6823)" stroke-opacity="0.04" stroke-width="1.27532"/>
<path d="M510.503 599.4H588.191C594.267 599.4 599.191 604.329 599.191 610.409V688.157C599.191 694.237 594.267 699.165 588.191 699.165H510.503C504.428 699.165 499.503 694.237 499.503 688.157V610.409C499.503 604.329 504.428 599.4 510.503 599.4Z" stroke="url(#paint79_linear_552_6823)" stroke-opacity="0.04" stroke-width="1.27532"/>
<path d="M410.815 599.4H488.503C494.579 599.4 499.503 604.329 499.503 610.409V688.157C499.503 694.237 494.579 699.165 488.503 699.165H410.815C404.74 699.165 399.815 694.237 399.815 688.157V610.409C399.815 604.329 404.74 599.4 410.815 599.4Z" stroke="url(#paint80_linear_552_6823)" stroke-opacity="0.04" stroke-width="1.27532"/>
<path d="M311.127 599.4H388.815C394.89 599.4 399.815 604.329 399.815 610.409V688.157C399.815 694.237 394.89 699.165 388.815 699.165H311.127C305.052 699.165 300.127 694.237 300.127 688.157V610.409C300.127 604.329 305.052 599.4 311.127 599.4Z" stroke="url(#paint81_linear_552_6823)" stroke-opacity="0.04" stroke-width="1.27532"/>
<path d="M211.438 599.4H289.126C295.201 599.4 300.126 604.329 300.126 610.409V688.157C300.126 694.237 295.201 699.165 289.126 699.165H211.438C205.363 699.165 200.438 694.237 200.438 688.157V610.409C200.438 604.329 205.363 599.4 211.438 599.4Z" stroke="url(#paint82_linear_552_6823)" stroke-opacity="0.04" stroke-width="1.27532"/>
<path d="M111.75 599.4H189.438C195.513 599.4 200.438 604.329 200.438 610.409V688.157C200.438 694.237 195.513 699.165 189.438 699.165H111.75C105.675 699.165 100.75 694.237 100.75 688.157V610.409C100.75 604.329 105.675 599.4 111.75 599.4Z" stroke="url(#paint83_linear_552_6823)" stroke-opacity="0.04" stroke-width="1.27532"/>
<path d="M12.0619 599.4H89.75C95.8251 599.4 100.75 604.329 100.75 610.409V688.157C100.75 694.237 95.8251 699.165 89.75 699.165H12.0619C5.98674 699.165 1.06185 694.237 1.06185 688.157V610.409C1.06185 604.329 5.98674 599.4 12.0619 599.4Z" stroke="url(#paint84_linear_552_6823)" stroke-opacity="0.04" stroke-width="1.27532"/>
<path d="M400.168 8.4834V88.9839C400.168 95.0638 395.244 99.9921 389.169 99.9921H311.48C305.405 99.9921 300.48 104.921 300.48 111.001V188.749C300.48 194.829 295.555 199.757 289.48 199.757H211.792C205.717 199.757 200.791 204.686 200.791 210.766V288.514C200.791 294.594 195.867 299.523 189.791 299.523H112.104C106.028 299.523 101.103 304.451 101.103 310.531V388.279C101.103 394.359 96.1785 399.288 90.1033 399.288H9.66534M499.856 8.4834V88.9839C499.856 95.0638 494.932 99.9921 488.857 99.9921H411.168C405.093 99.9921 400.168 104.921 400.168 111.001V188.749C400.168 194.829 395.244 199.757 389.169 199.757H311.48C305.405 199.757 300.48 204.686 300.48 210.766V288.514C300.48 294.594 305.405 299.523 311.48 299.523H389.169C395.244 299.523 400.168 294.594 400.168 288.514V209.39L400.265 208.74C401.003 203.753 405.232 200.031 410.267 199.933L419.418 199.757H488.857C494.932 199.757 499.856 204.686 499.856 210.766V288.514C499.856 294.594 494.932 299.523 488.857 299.523H410.481L407.87 299.697C403.536 299.986 400.168 303.589 400.168 307.935V316.379M400.168 307.779V388.279C400.168 394.359 395.244 399.288 389.169 399.288H311.48C305.405 399.288 300.48 404.216 300.48 410.296V488.045C300.48 494.124 295.555 499.053 289.48 499.053H211.792C205.717 499.053 200.791 503.982 200.791 510.061V587.81C200.791 593.889 195.867 598.818 189.791 598.818H112.104C106.028 598.818 101.103 603.747 101.103 609.827V687.575C101.103 693.654 96.1785 698.584 90.1033 698.584H9.66534" stroke="url(#paint85_linear_552_6823)" stroke-opacity="0.5" stroke-width="1.27532"/>
</g>
<defs>
<linearGradient id="paint0_linear_552_6823" x1="1095.65" y1="0.80957" x2="1095.65" y2="100.575" gradientUnits="userSpaceOnUse">
<stop stop-color="#7A7272" stop-opacity="0"/>
<stop offset="0.5" stop-color="#7A7272"/>
<stop offset="1" stop-color="#E0D1D1"/>
</linearGradient>
<linearGradient id="paint1_linear_552_6823" x1="1195.34" y1="0.80957" x2="1195.34" y2="100.575" gradientUnits="userSpaceOnUse">
<stop stop-color="#7A7272" stop-opacity="0"/>
<stop offset="0.5" stop-color="#7A7272"/>
<stop offset="1" stop-color="#E0D1D1"/>
</linearGradient>
<linearGradient id="paint2_linear_552_6823" x1="1295.03" y1="0.80957" x2="1295.03" y2="100.575" gradientUnits="userSpaceOnUse">
<stop stop-color="#7A7272" stop-opacity="0"/>
<stop offset="0.5" stop-color="#7A7272"/>
<stop offset="1" stop-color="#E0D1D1"/>
</linearGradient>
<linearGradient id="paint3_linear_552_6823" x1="1394.72" y1="0.80957" x2="1394.72" y2="100.575" gradientUnits="userSpaceOnUse">
<stop stop-color="#7A7272" stop-opacity="0"/>
<stop offset="0.5" stop-color="#7A7272"/>
<stop offset="1" stop-color="#E0D1D1"/>
</linearGradient>
<linearGradient id="paint4_linear_552_6823" x1="1494.41" y1="0.80957" x2="1494.41" y2="100.575" gradientUnits="userSpaceOnUse">
<stop stop-color="#7A7272" stop-opacity="0"/>
<stop offset="0.5" stop-color="#7A7272"/>
<stop offset="1" stop-color="#E0D1D1"/>
</linearGradient>
<linearGradient id="paint5_linear_552_6823" x1="1594.09" y1="0.80957" x2="1594.09" y2="100.575" gradientUnits="userSpaceOnUse">
<stop stop-color="#7A7272" stop-opacity="0"/>
<stop offset="0.5" stop-color="#7A7272"/>
<stop offset="1" stop-color="#E0D1D1"/>
</linearGradient>
<linearGradient id="paint6_linear_552_6823" x1="1095.65" y1="100.574" x2="1095.65" y2="200.339" gradientUnits="userSpaceOnUse">
<stop stop-color="#7A7272" stop-opacity="0"/>
<stop offset="0.5" stop-color="#7A7272"/>
<stop offset="1" stop-color="#E0D1D1"/>
</linearGradient>
<linearGradient id="paint7_linear_552_6823" x1="1195.34" y1="100.574" x2="1195.34" y2="200.339" gradientUnits="userSpaceOnUse">
<stop stop-color="#7A7272" stop-opacity="0"/>
<stop offset="0.5" stop-color="#7A7272"/>
<stop offset="1" stop-color="#E0D1D1"/>
</linearGradient>
<linearGradient id="paint8_linear_552_6823" x1="1295.03" y1="100.574" x2="1295.03" y2="200.339" gradientUnits="userSpaceOnUse">
<stop stop-color="#7A7272" stop-opacity="0"/>
<stop offset="0.5" stop-color="#7A7272"/>
<stop offset="1" stop-color="#E0D1D1"/>
</linearGradient>
<linearGradient id="paint9_linear_552_6823" x1="1394.72" y1="100.574" x2="1394.72" y2="200.339" gradientUnits="userSpaceOnUse">
<stop stop-color="#7A7272" stop-opacity="0"/>
<stop offset="0.5" stop-color="#7A7272"/>
<stop offset="1" stop-color="#E0D1D1"/>
</linearGradient>
<linearGradient id="paint10_linear_552_6823" x1="1494.41" y1="100.574" x2="1494.41" y2="200.339" gradientUnits="userSpaceOnUse">
<stop stop-color="#7A7272" stop-opacity="0"/>
<stop offset="0.5" stop-color="#7A7272"/>
<stop offset="1" stop-color="#E0D1D1"/>
</linearGradient>
<linearGradient id="paint11_linear_552_6823" x1="1594.09" y1="100.574" x2="1594.09" y2="200.339" gradientUnits="userSpaceOnUse">
<stop stop-color="#7A7272" stop-opacity="0"/>
<stop offset="0.5" stop-color="#7A7272"/>
<stop offset="1" stop-color="#E0D1D1"/>
</linearGradient>
<linearGradient id="paint12_linear_552_6823" x1="1095.65" y1="200.339" x2="1095.65" y2="300.104" gradientUnits="userSpaceOnUse">
<stop stop-color="#7A7272" stop-opacity="0"/>
<stop offset="0.5" stop-color="#7A7272"/>
<stop offset="1" stop-color="#E0D1D1"/>
</linearGradient>
<linearGradient id="paint13_linear_552_6823" x1="1195.34" y1="200.339" x2="1195.34" y2="300.104" gradientUnits="userSpaceOnUse">
<stop stop-color="#7A7272" stop-opacity="0"/>
<stop offset="0.5" stop-color="#7A7272"/>
<stop offset="1" stop-color="#E0D1D1"/>
</linearGradient>
<linearGradient id="paint14_linear_552_6823" x1="1295.03" y1="200.339" x2="1295.03" y2="300.104" gradientUnits="userSpaceOnUse">
<stop stop-color="#7A7272" stop-opacity="0"/>
<stop offset="0.5" stop-color="#7A7272"/>
<stop offset="1" stop-color="#E0D1D1"/>
</linearGradient>
<linearGradient id="paint15_linear_552_6823" x1="1394.72" y1="200.339" x2="1394.72" y2="300.104" gradientUnits="userSpaceOnUse">
<stop stop-color="#7A7272" stop-opacity="0"/>
<stop offset="0.5" stop-color="#7A7272"/>
<stop offset="1" stop-color="#E0D1D1"/>
</linearGradient>
<linearGradient id="paint16_linear_552_6823" x1="1494.41" y1="200.339" x2="1494.41" y2="300.104" gradientUnits="userSpaceOnUse">
<stop stop-color="#7A7272" stop-opacity="0"/>
<stop offset="0.5" stop-color="#7A7272"/>
<stop offset="1" stop-color="#E0D1D1"/>
</linearGradient>
<linearGradient id="paint17_linear_552_6823" x1="1594.09" y1="200.339" x2="1594.09" y2="300.104" gradientUnits="userSpaceOnUse">
<stop stop-color="#7A7272" stop-opacity="0"/>
<stop offset="0.5" stop-color="#7A7272"/>
<stop offset="1" stop-color="#E0D1D1"/>
</linearGradient>
<linearGradient id="paint18_linear_552_6823" x1="1095.65" y1="300.105" x2="1095.65" y2="399.87" gradientUnits="userSpaceOnUse">
<stop stop-color="#7A7272" stop-opacity="0"/>
<stop offset="0.5" stop-color="#7A7272"/>
<stop offset="1" stop-color="#E0D1D1"/>
</linearGradient>
<linearGradient id="paint19_linear_552_6823" x1="1195.34" y1="300.105" x2="1195.34" y2="399.87" gradientUnits="userSpaceOnUse">
<stop stop-color="#7A7272" stop-opacity="0"/>
<stop offset="0.5" stop-color="#7A7272"/>
<stop offset="1" stop-color="#E0D1D1"/>
</linearGradient>
<linearGradient id="paint20_linear_552_6823" x1="1295.03" y1="300.105" x2="1295.03" y2="399.87" gradientUnits="userSpaceOnUse">
<stop stop-color="#7A7272" stop-opacity="0"/>
<stop offset="0.5" stop-color="#7A7272"/>
<stop offset="1" stop-color="#E0D1D1"/>
</linearGradient>
<linearGradient id="paint21_linear_552_6823" x1="1394.72" y1="300.105" x2="1394.72" y2="399.87" gradientUnits="userSpaceOnUse">
<stop stop-color="#7A7272" stop-opacity="0"/>
<stop offset="0.5" stop-color="#7A7272"/>
<stop offset="1" stop-color="#E0D1D1"/>
</linearGradient>
<linearGradient id="paint22_linear_552_6823" x1="1494.41" y1="300.105" x2="1494.41" y2="399.87" gradientUnits="userSpaceOnUse">
<stop stop-color="#7A7272" stop-opacity="0"/>
<stop offset="0.5" stop-color="#7A7272"/>
<stop offset="1" stop-color="#E0D1D1"/>
</linearGradient>
<linearGradient id="paint23_linear_552_6823" x1="1594.09" y1="300.105" x2="1594.09" y2="399.87" gradientUnits="userSpaceOnUse">
<stop stop-color="#7A7272" stop-opacity="0"/>
<stop offset="0.5" stop-color="#7A7272"/>
<stop offset="1" stop-color="#E0D1D1"/>
</linearGradient>
<linearGradient id="paint24_linear_552_6823" x1="1095.65" y1="399.87" x2="1095.65" y2="499.635" gradientUnits="userSpaceOnUse">
<stop stop-color="#7A7272" stop-opacity="0"/>
<stop offset="0.5" stop-color="#7A7272"/>
<stop offset="1" stop-color="#E0D1D1"/>
</linearGradient>
<linearGradient id="paint25_linear_552_6823" x1="1195.34" y1="399.87" x2="1195.34" y2="499.635" gradientUnits="userSpaceOnUse">
<stop stop-color="#7A7272" stop-opacity="0"/>
<stop offset="0.5" stop-color="#7A7272"/>
<stop offset="1" stop-color="#E0D1D1"/>
</linearGradient>
<linearGradient id="paint26_linear_552_6823" x1="1295.03" y1="399.87" x2="1295.03" y2="499.635" gradientUnits="userSpaceOnUse">
<stop stop-color="#7A7272" stop-opacity="0"/>
<stop offset="0.5" stop-color="#7A7272"/>
<stop offset="1" stop-color="#E0D1D1"/>
</linearGradient>
<linearGradient id="paint27_linear_552_6823" x1="1394.72" y1="399.87" x2="1394.72" y2="499.635" gradientUnits="userSpaceOnUse">
<stop stop-color="#7A7272" stop-opacity="0"/>
<stop offset="0.5" stop-color="#7A7272"/>
<stop offset="1" stop-color="#E0D1D1"/>
</linearGradient>
<linearGradient id="paint28_linear_552_6823" x1="1494.41" y1="399.87" x2="1494.41" y2="499.635" gradientUnits="userSpaceOnUse">
<stop stop-color="#7A7272" stop-opacity="0"/>
<stop offset="0.5" stop-color="#7A7272"/>
<stop offset="1" stop-color="#E0D1D1"/>
</linearGradient>
<linearGradient id="paint29_linear_552_6823" x1="1594.09" y1="399.87" x2="1594.09" y2="499.635" gradientUnits="userSpaceOnUse">
<stop stop-color="#7A7272" stop-opacity="0"/>
<stop offset="0.5" stop-color="#7A7272"/>
<stop offset="1" stop-color="#E0D1D1"/>
</linearGradient>
<linearGradient id="paint30_linear_552_6823" x1="1095.65" y1="499.634" x2="1095.65" y2="599.399" gradientUnits="userSpaceOnUse">
<stop stop-color="#7A7272" stop-opacity="0"/>
<stop offset="0.5" stop-color="#7A7272"/>
<stop offset="1" stop-color="#E0D1D1"/>
</linearGradient>
<linearGradient id="paint31_linear_552_6823" x1="1195.34" y1="499.634" x2="1195.34" y2="599.399" gradientUnits="userSpaceOnUse">
<stop stop-color="#7A7272" stop-opacity="0"/>
<stop offset="0.5" stop-color="#7A7272"/>
<stop offset="1" stop-color="#E0D1D1"/>
</linearGradient>
<linearGradient id="paint32_linear_552_6823" x1="1295.03" y1="499.634" x2="1295.03" y2="599.399" gradientUnits="userSpaceOnUse">
<stop stop-color="#7A7272" stop-opacity="0"/>
<stop offset="0.5" stop-color="#7A7272"/>
<stop offset="1" stop-color="#E0D1D1"/>
</linearGradient>
<linearGradient id="paint33_linear_552_6823" x1="1394.72" y1="499.634" x2="1394.72" y2="599.399" gradientUnits="userSpaceOnUse">
<stop stop-color="#7A7272" stop-opacity="0"/>
<stop offset="0.5" stop-color="#7A7272"/>
<stop offset="1" stop-color="#E0D1D1"/>
</linearGradient>
<linearGradient id="paint34_linear_552_6823" x1="1494.41" y1="499.634" x2="1494.41" y2="599.399" gradientUnits="userSpaceOnUse">
<stop stop-color="#7A7272" stop-opacity="0"/>
<stop offset="0.5" stop-color="#7A7272"/>
<stop offset="1" stop-color="#E0D1D1"/>
</linearGradient>
<linearGradient id="paint35_linear_552_6823" x1="1594.09" y1="499.634" x2="1594.09" y2="599.399" gradientUnits="userSpaceOnUse">
<stop stop-color="#7A7272" stop-opacity="0"/>
<stop offset="0.5" stop-color="#7A7272"/>
<stop offset="1" stop-color="#E0D1D1"/>
</linearGradient>
<linearGradient id="paint36_linear_552_6823" x1="1095.65" y1="599.4" x2="1095.65" y2="699.165" gradientUnits="userSpaceOnUse">
<stop stop-color="#7A7272" stop-opacity="0"/>
<stop offset="0.5" stop-color="#7A7272"/>
<stop offset="1" stop-color="#E0D1D1"/>
</linearGradient>
<linearGradient id="paint37_linear_552_6823" x1="1195.34" y1="599.4" x2="1195.34" y2="699.165" gradientUnits="userSpaceOnUse">
<stop stop-color="#7A7272" stop-opacity="0"/>
<stop offset="0.5" stop-color="#7A7272"/>
<stop offset="1" stop-color="#E0D1D1"/>
</linearGradient>
<linearGradient id="paint38_linear_552_6823" x1="1295.03" y1="599.4" x2="1295.03" y2="699.165" gradientUnits="userSpaceOnUse">
<stop stop-color="#7A7272" stop-opacity="0"/>
<stop offset="0.5" stop-color="#7A7272"/>
<stop offset="1" stop-color="#E0D1D1"/>
</linearGradient>
<linearGradient id="paint39_linear_552_6823" x1="1394.72" y1="599.4" x2="1394.72" y2="699.165" gradientUnits="userSpaceOnUse">
<stop stop-color="#7A7272" stop-opacity="0"/>
<stop offset="0.5" stop-color="#7A7272"/>
<stop offset="1" stop-color="#E0D1D1"/>
</linearGradient>
<linearGradient id="paint40_linear_552_6823" x1="1494.41" y1="599.4" x2="1494.41" y2="699.165" gradientUnits="userSpaceOnUse">
<stop stop-color="#7A7272" stop-opacity="0"/>
<stop offset="0.5" stop-color="#7A7272"/>
<stop offset="1" stop-color="#E0D1D1"/>
</linearGradient>
<linearGradient id="paint41_linear_552_6823" x1="1594.09" y1="599.4" x2="1594.09" y2="699.165" gradientUnits="userSpaceOnUse">
<stop stop-color="#7A7272" stop-opacity="0"/>
<stop offset="0.5" stop-color="#7A7272"/>
<stop offset="1" stop-color="#E0D1D1"/>
</linearGradient>
<linearGradient id="paint42_linear_552_6823" x1="1145.14" y1="8.4834" x2="1624.78" y2="601.553" gradientUnits="userSpaceOnUse">
<stop stop-color="#670BFF"/>
<stop offset="0.9375" stop-color="#FF6700"/>
</linearGradient>
<linearGradient id="paint43_linear_552_6823" x1="549.347" y1="0.80957" x2="549.347" y2="100.575" gradientUnits="userSpaceOnUse">
<stop stop-color="#7A7272" stop-opacity="0"/>
<stop offset="0.5" stop-color="#7A7272"/>
<stop offset="1" stop-color="#E0D1D1"/>
</linearGradient>
<linearGradient id="paint44_linear_552_6823" x1="449.659" y1="0.80957" x2="449.659" y2="100.575" gradientUnits="userSpaceOnUse">
<stop stop-color="#7A7272" stop-opacity="0"/>
<stop offset="0.5" stop-color="#7A7272"/>
<stop offset="1" stop-color="#E0D1D1"/>
</linearGradient>
<linearGradient id="paint45_linear_552_6823" x1="349.971" y1="0.80957" x2="349.971" y2="100.575" gradientUnits="userSpaceOnUse">
<stop stop-color="#7A7272" stop-opacity="0"/>
<stop offset="0.5" stop-color="#7A7272"/>
<stop offset="1" stop-color="#E0D1D1"/>
</linearGradient>
<linearGradient id="paint46_linear_552_6823" x1="250.282" y1="0.80957" x2="250.282" y2="100.575" gradientUnits="userSpaceOnUse">
<stop stop-color="#7A7272" stop-opacity="0"/>
<stop offset="0.5" stop-color="#7A7272"/>
<stop offset="1" stop-color="#E0D1D1"/>
</linearGradient>
<linearGradient id="paint47_linear_552_6823" x1="150.594" y1="0.80957" x2="150.594" y2="100.575" gradientUnits="userSpaceOnUse">
<stop stop-color="#7A7272" stop-opacity="0"/>
<stop offset="0.5" stop-color="#7A7272"/>
<stop offset="1" stop-color="#E0D1D1"/>
</linearGradient>
<linearGradient id="paint48_linear_552_6823" x1="50.9059" y1="0.80957" x2="50.9059" y2="100.575" gradientUnits="userSpaceOnUse">
<stop stop-color="#7A7272" stop-opacity="0"/>
<stop offset="0.5" stop-color="#7A7272"/>
<stop offset="1" stop-color="#E0D1D1"/>
</linearGradient>
<linearGradient id="paint49_linear_552_6823" x1="549.347" y1="100.574" x2="549.347" y2="200.339" gradientUnits="userSpaceOnUse">
<stop stop-color="#7A7272" stop-opacity="0"/>
<stop offset="0.5" stop-color="#7A7272"/>
<stop offset="1" stop-color="#E0D1D1"/>
</linearGradient>
<linearGradient id="paint50_linear_552_6823" x1="449.659" y1="100.574" x2="449.659" y2="200.339" gradientUnits="userSpaceOnUse">
<stop stop-color="#7A7272" stop-opacity="0"/>
<stop offset="0.5" stop-color="#7A7272"/>
<stop offset="1" stop-color="#E0D1D1"/>
</linearGradient>
<linearGradient id="paint51_linear_552_6823" x1="349.971" y1="100.574" x2="349.971" y2="200.339" gradientUnits="userSpaceOnUse">
<stop stop-color="#7A7272" stop-opacity="0"/>
<stop offset="0.5" stop-color="#7A7272"/>
<stop offset="1" stop-color="#E0D1D1"/>
</linearGradient>
<linearGradient id="paint52_linear_552_6823" x1="250.282" y1="100.574" x2="250.282" y2="200.339" gradientUnits="userSpaceOnUse">
<stop stop-color="#7A7272" stop-opacity="0"/>
<stop offset="0.5" stop-color="#7A7272"/>
<stop offset="1" stop-color="#E0D1D1"/>
</linearGradient>
<linearGradient id="paint53_linear_552_6823" x1="150.594" y1="100.574" x2="150.594" y2="200.339" gradientUnits="userSpaceOnUse">
<stop stop-color="#7A7272" stop-opacity="0"/>
<stop offset="0.5" stop-color="#7A7272"/>
<stop offset="1" stop-color="#E0D1D1"/>
</linearGradient>
<linearGradient id="paint54_linear_552_6823" x1="50.9059" y1="100.574" x2="50.9059" y2="200.339" gradientUnits="userSpaceOnUse">
<stop stop-color="#7A7272" stop-opacity="0"/>
<stop offset="0.5" stop-color="#7A7272"/>
<stop offset="1" stop-color="#E0D1D1"/>
</linearGradient>
<linearGradient id="paint55_linear_552_6823" x1="549.347" y1="200.339" x2="549.347" y2="300.104" gradientUnits="userSpaceOnUse">
<stop stop-color="#7A7272" stop-opacity="0"/>
<stop offset="0.5" stop-color="#7A7272"/>
<stop offset="1" stop-color="#E0D1D1"/>
</linearGradient>
<linearGradient id="paint56_linear_552_6823" x1="449.659" y1="200.339" x2="449.659" y2="300.104" gradientUnits="userSpaceOnUse">
<stop stop-color="#7A7272" stop-opacity="0"/>
<stop offset="0.5" stop-color="#7A7272"/>
<stop offset="1" stop-color="#E0D1D1"/>
</linearGradient>
<linearGradient id="paint57_linear_552_6823" x1="349.971" y1="200.339" x2="349.971" y2="300.104" gradientUnits="userSpaceOnUse">
<stop stop-color="#7A7272" stop-opacity="0"/>
<stop offset="0.5" stop-color="#7A7272"/>
<stop offset="1" stop-color="#E0D1D1"/>
</linearGradient>
<linearGradient id="paint58_linear_552_6823" x1="250.282" y1="200.339" x2="250.282" y2="300.104" gradientUnits="userSpaceOnUse">
<stop stop-color="#7A7272" stop-opacity="0"/>
<stop offset="0.5" stop-color="#7A7272"/>
<stop offset="1" stop-color="#E0D1D1"/>
</linearGradient>
<linearGradient id="paint59_linear_552_6823" x1="150.594" y1="200.339" x2="150.594" y2="300.104" gradientUnits="userSpaceOnUse">
<stop stop-color="#7A7272" stop-opacity="0"/>
<stop offset="0.5" stop-color="#7A7272"/>
<stop offset="1" stop-color="#E0D1D1"/>
</linearGradient>
<linearGradient id="paint60_linear_552_6823" x1="50.9059" y1="200.339" x2="50.9059" y2="300.104" gradientUnits="userSpaceOnUse">
<stop stop-color="#7A7272" stop-opacity="0"/>
<stop offset="0.5" stop-color="#7A7272"/>
<stop offset="1" stop-color="#E0D1D1"/>
</linearGradient>
<linearGradient id="paint61_linear_552_6823" x1="549.347" y1="300.105" x2="549.347" y2="399.87" gradientUnits="userSpaceOnUse">
<stop stop-color="#7A7272" stop-opacity="0"/>
<stop offset="0.5" stop-color="#7A7272"/>
<stop offset="1" stop-color="#E0D1D1"/>
</linearGradient>
<linearGradient id="paint62_linear_552_6823" x1="449.659" y1="300.105" x2="449.659" y2="399.87" gradientUnits="userSpaceOnUse">
<stop stop-color="#7A7272" stop-opacity="0"/>
<stop offset="0.5" stop-color="#7A7272"/>
<stop offset="1" stop-color="#E0D1D1"/>
</linearGradient>
<linearGradient id="paint63_linear_552_6823" x1="349.971" y1="300.105" x2="349.971" y2="399.87" gradientUnits="userSpaceOnUse">
<stop stop-color="#7A7272" stop-opacity="0"/>
<stop offset="0.5" stop-color="#7A7272"/>
<stop offset="1" stop-color="#E0D1D1"/>
</linearGradient>
<linearGradient id="paint64_linear_552_6823" x1="250.282" y1="300.105" x2="250.282" y2="399.87" gradientUnits="userSpaceOnUse">
<stop stop-color="#7A7272" stop-opacity="0"/>
<stop offset="0.5" stop-color="#7A7272"/>
<stop offset="1" stop-color="#E0D1D1"/>
</linearGradient>
<linearGradient id="paint65_linear_552_6823" x1="150.594" y1="300.105" x2="150.594" y2="399.87" gradientUnits="userSpaceOnUse">
<stop stop-color="#7A7272" stop-opacity="0"/>
<stop offset="0.5" stop-color="#7A7272"/>
<stop offset="1" stop-color="#E0D1D1"/>
</linearGradient>
<linearGradient id="paint66_linear_552_6823" x1="50.9059" y1="300.105" x2="50.9059" y2="399.87" gradientUnits="userSpaceOnUse">
<stop stop-color="#7A7272" stop-opacity="0"/>
<stop offset="0.5" stop-color="#7A7272"/>
<stop offset="1" stop-color="#E0D1D1"/>
</linearGradient>
<linearGradient id="paint67_linear_552_6823" x1="549.347" y1="399.87" x2="549.347" y2="499.635" gradientUnits="userSpaceOnUse">
<stop stop-color="#7A7272" stop-opacity="0"/>
<stop offset="0.5" stop-color="#7A7272"/>
<stop offset="1" stop-color="#E0D1D1"/>
</linearGradient>
<linearGradient id="paint68_linear_552_6823" x1="449.659" y1="399.87" x2="449.659" y2="499.635" gradientUnits="userSpaceOnUse">
<stop stop-color="#7A7272" stop-opacity="0"/>
<stop offset="0.5" stop-color="#7A7272"/>
<stop offset="1" stop-color="#E0D1D1"/>
</linearGradient>
<linearGradient id="paint69_linear_552_6823" x1="349.971" y1="399.87" x2="349.971" y2="499.635" gradientUnits="userSpaceOnUse">
<stop stop-color="#7A7272" stop-opacity="0"/>
<stop offset="0.5" stop-color="#7A7272"/>
<stop offset="1" stop-color="#E0D1D1"/>
</linearGradient>
<linearGradient id="paint70_linear_552_6823" x1="250.282" y1="399.87" x2="250.282" y2="499.635" gradientUnits="userSpaceOnUse">
<stop stop-color="#7A7272" stop-opacity="0"/>
<stop offset="0.5" stop-color="#7A7272"/>
<stop offset="1" stop-color="#E0D1D1"/>
</linearGradient>
<linearGradient id="paint71_linear_552_6823" x1="150.594" y1="399.87" x2="150.594" y2="499.635" gradientUnits="userSpaceOnUse">
<stop stop-color="#7A7272" stop-opacity="0"/>
<stop offset="0.5" stop-color="#7A7272"/>
<stop offset="1" stop-color="#E0D1D1"/>
</linearGradient>
<linearGradient id="paint72_linear_552_6823" x1="50.9059" y1="399.87" x2="50.9059" y2="499.635" gradientUnits="userSpaceOnUse">
<stop stop-color="#7A7272" stop-opacity="0"/>
<stop offset="0.5" stop-color="#7A7272"/>
<stop offset="1" stop-color="#E0D1D1"/>
</linearGradient>
<linearGradient id="paint73_linear_552_6823" x1="549.347" y1="499.634" x2="549.347" y2="599.399" gradientUnits="userSpaceOnUse">
<stop stop-color="#7A7272" stop-opacity="0"/>
<stop offset="0.5" stop-color="#7A7272"/>
<stop offset="1" stop-color="#E0D1D1"/>
</linearGradient>
<linearGradient id="paint74_linear_552_6823" x1="449.659" y1="499.634" x2="449.659" y2="599.399" gradientUnits="userSpaceOnUse">
<stop stop-color="#7A7272" stop-opacity="0"/>
<stop offset="0.5" stop-color="#7A7272"/>
<stop offset="1" stop-color="#E0D1D1"/>
</linearGradient>
<linearGradient id="paint75_linear_552_6823" x1="349.971" y1="499.634" x2="349.971" y2="599.399" gradientUnits="userSpaceOnUse">
<stop stop-color="#7A7272" stop-opacity="0"/>
<stop offset="0.5" stop-color="#7A7272"/>
<stop offset="1" stop-color="#E0D1D1"/>
</linearGradient>
<linearGradient id="paint76_linear_552_6823" x1="250.282" y1="499.634" x2="250.282" y2="599.399" gradientUnits="userSpaceOnUse">
<stop stop-color="#7A7272" stop-opacity="0"/>
<stop offset="0.5" stop-color="#7A7272"/>
<stop offset="1" stop-color="#E0D1D1"/>
</linearGradient>
<linearGradient id="paint77_linear_552_6823" x1="150.594" y1="499.634" x2="150.594" y2="599.399" gradientUnits="userSpaceOnUse">
<stop stop-color="#7A7272" stop-opacity="0"/>
<stop offset="0.5" stop-color="#7A7272"/>
<stop offset="1" stop-color="#E0D1D1"/>
</linearGradient>
<linearGradient id="paint78_linear_552_6823" x1="50.9059" y1="499.634" x2="50.9059" y2="599.399" gradientUnits="userSpaceOnUse">
<stop stop-color="#7A7272" stop-opacity="0"/>
<stop offset="0.5" stop-color="#7A7272"/>
<stop offset="1" stop-color="#E0D1D1"/>
</linearGradient>
<linearGradient id="paint79_linear_552_6823" x1="549.347" y1="599.4" x2="549.347" y2="699.165" gradientUnits="userSpaceOnUse">
<stop stop-color="#7A7272" stop-opacity="0"/>
<stop offset="0.5" stop-color="#7A7272"/>
<stop offset="1" stop-color="#E0D1D1"/>
</linearGradient>
<linearGradient id="paint80_linear_552_6823" x1="449.659" y1="599.4" x2="449.659" y2="699.165" gradientUnits="userSpaceOnUse">
<stop stop-color="#7A7272" stop-opacity="0"/>
<stop offset="0.5" stop-color="#7A7272"/>
<stop offset="1" stop-color="#E0D1D1"/>
</linearGradient>
<linearGradient id="paint81_linear_552_6823" x1="349.971" y1="599.4" x2="349.971" y2="699.165" gradientUnits="userSpaceOnUse">
<stop stop-color="#7A7272" stop-opacity="0"/>
<stop offset="0.5" stop-color="#7A7272"/>
<stop offset="1" stop-color="#E0D1D1"/>
</linearGradient>
<linearGradient id="paint82_linear_552_6823" x1="250.282" y1="599.4" x2="250.282" y2="699.165" gradientUnits="userSpaceOnUse">
<stop stop-color="#7A7272" stop-opacity="0"/>
<stop offset="0.5" stop-color="#7A7272"/>
<stop offset="1" stop-color="#E0D1D1"/>
</linearGradient>
<linearGradient id="paint83_linear_552_6823" x1="150.594" y1="599.4" x2="150.594" y2="699.165" gradientUnits="userSpaceOnUse">
<stop stop-color="#7A7272" stop-opacity="0"/>
<stop offset="0.5" stop-color="#7A7272"/>
<stop offset="1" stop-color="#E0D1D1"/>
</linearGradient>
<linearGradient id="paint84_linear_552_6823" x1="50.9059" y1="599.4" x2="50.9059" y2="699.165" gradientUnits="userSpaceOnUse">
<stop stop-color="#7A7272" stop-opacity="0"/>
<stop offset="0.5" stop-color="#7A7272"/>
<stop offset="1" stop-color="#E0D1D1"/>
</linearGradient>
<linearGradient id="paint85_linear_552_6823" x1="499.856" y1="8.4834" x2="20.2183" y2="601.553" gradientUnits="userSpaceOnUse">
<stop stop-color="#670BFF"/>
<stop offset="0.9375" stop-color="#FF6700"/>
</linearGradient>
<clipPath id="clip0_552_6823">
<rect width="600" height="700" fill="white" transform="translate(1045)"/>
</clipPath>
<clipPath id="clip1_552_6823">
<rect width="600" height="700" fill="white" transform="matrix(-1 0 0 1 600 0)"/>
</clipPath>
</defs>
</svg>
